<svg width="54" height="54" viewBox="0 0 54 54" fill="none" xmlns="http://www.w3.org/2000/svg">
<path d="M2 45.5529C2 49.1139 4.88652 52 8.44707 52H45.5527C49.1139 52 52 49.1135 52 45.5529V8.44727C52 4.88613 49.1135 2 45.5529 2H8.44727C4.88613 2 2 4.88652 2 8.44707V45.5529Z" fill="#563D7C"/>
<path d="M22.735 24.1168V17.0361H28.9676C29.5613 17.0361 30.1336 17.0855 30.6848 17.1846C31.2359 17.2834 31.7236 17.46 32.1477 17.7145C32.5715 17.9689 32.9107 18.3223 33.1652 18.7744C33.4195 19.2268 33.5469 19.8063 33.5469 20.5127C33.5469 21.7848 33.1652 22.7035 32.402 23.2688C31.6389 23.8342 30.6637 24.1168 29.4764 24.1168H22.735ZM16.0781 11.8633V42.1367H30.7484C32.1053 42.1367 33.4268 41.9672 34.7129 41.6279C35.999 41.2887 37.1438 40.7658 38.1473 40.0592C39.1506 39.3525 39.9492 38.4408 40.5428 37.3244C41.1365 36.2078 41.4332 34.8863 41.4332 33.36C41.4332 31.466 40.9738 29.8479 40.0553 28.5053C39.1365 27.1625 37.7443 26.2227 35.8787 25.6855C37.2355 25.0355 38.2604 24.2016 38.9529 23.184C39.6453 22.1664 39.9916 20.8945 39.9916 19.368C39.9916 17.9547 39.7584 16.7676 39.292 15.8064C38.8256 14.8455 38.1684 14.0752 37.3203 13.4957C36.4725 12.9162 35.4549 12.4992 34.2676 12.2449C33.0805 11.9904 31.766 11.8633 30.3244 11.8633H16.0781ZM22.735 36.9639V28.6535H29.9852C31.4268 28.6535 32.5857 28.9855 33.4621 29.65C34.3383 30.3143 34.7766 31.4236 34.7766 32.9783C34.7766 33.7699 34.6422 34.4199 34.3736 34.9287C34.1051 35.4375 33.7447 35.8404 33.2924 36.1371C32.8402 36.434 32.3172 36.6459 31.7236 36.7732C31.1299 36.9002 30.5082 36.9639 29.858 36.9639H22.735Z" fill="white"/>
</svg>
