<svg width="60" height="60" viewBox="0 0 60 60" fill="none" xmlns="http://www.w3.org/2000/svg">
<path fill-rule="evenodd" clip-rule="evenodd" d="M55.216 24.3181L57.5385 24.3317C57.5385 24.3317 53.2205 30.5344 52.8678 31.04C52.7533 31.2036 52.5794 31.3802 52.4912 31.599C52.2681 32.1491 52.0391 33.3559 52.0391 33.3559L49.914 33.3672C49.914 33.3672 50.2447 32.1093 50.2311 31.4393C50.2191 30.854 49.9372 30.2694 49.7791 29.6824C49.6193 29.0881 49.4023 27.9254 49.4023 27.9254H51.5872L51.8885 29.2032L55.216 24.3181Z" fill="white"/>
<path fill-rule="evenodd" clip-rule="evenodd" d="M50.8176 25.6263C51.2462 25.9002 51.5093 27.4112 51.5093 27.4112C51.5093 27.4112 49.2665 27.4463 48.046 27.4463H46.9913L45.7106 33.3559H43.7519C43.7519 33.3559 44.9709 26.9336 45.2587 25.7692C45.3519 25.3922 45.8975 25.4569 46.8188 25.4569H48.2901C49.2402 25.4569 50.3506 25.3283 50.8176 25.6263ZM41.699 28.5044C41.699 28.5044 41.7601 28.1251 41.4919 27.6858C41.2628 27.3113 41.0513 27.2242 40.4485 27.2042C38.7467 27.1475 38.7798 28.4844 38.7798 28.4844L41.699 28.5044ZM43.5447 26.9734C43.7941 27.9271 43.3187 30.1679 43.3187 30.1679C43.3187 30.1679 40.8364 30.124 39.4767 30.1679C39.0539 30.1815 38.5479 30.1191 38.422 30.3276C38.2449 30.6198 38.4867 31.0696 38.6916 31.2596C38.9275 31.4783 39.3869 31.5033 39.552 31.5255C40.6556 31.6741 42.9654 31.5638 42.9654 31.5638L42.5653 33.442C42.5653 33.442 39.3012 33.6156 37.6686 33.2025C37.3463 33.1211 37.0441 32.9566 36.8399 32.7234C36.7842 32.6596 36.7358 32.5726 36.6831 32.4974C36.641 32.4374 36.5183 32.2403 36.4632 32.0844C36.0903 31.0311 36.5069 29.0132 36.9152 27.9318C36.9626 27.8065 37.0222 27.6475 37.0848 27.5125C37.1631 27.3441 37.2294 27.154 37.2919 27.0533C37.334 26.9838 37.3862 26.9391 37.4299 26.8736C37.4803 26.7961 37.5389 26.7211 37.5933 26.6541C37.744 26.4688 37.915 26.3378 38.1207 26.175C38.8008 25.635 40.0318 25.2158 41.5107 25.3763C42.0675 25.4369 42.9083 25.6478 43.3187 26.2548C43.4287 26.4168 43.483 26.7386 43.5447 26.9734ZM34.561 25.4496L36.4603 25.4378C36.4603 25.4378 35.4018 30.7604 34.8624 33.3559H32.6775C31.1506 33.3559 29.7908 33.5564 29.2122 32.3975C28.651 31.2724 29.1866 29.422 29.4382 28.1649C29.616 27.2752 29.9905 25.4568 29.9905 25.4568L31.9583 25.4378C31.9583 25.4378 31.4023 28.2688 31.1709 29.6824C31.0881 30.1887 30.9172 30.6655 31.0956 31.0398C31.2651 31.3961 31.5025 31.4217 32.2256 31.4392C32.4547 31.445 33.205 31.4392 33.205 31.4392L34.561 25.4496ZM25.6715 29.2829C25.8703 28.534 26.1604 27.7218 26.1235 27.0468C26.0836 26.325 25.5126 25.6678 25.1442 25.5296C24.0345 25.1143 22.9957 25.6949 22.5828 26.1684C22.0486 26.7818 21.8678 27.4982 21.6787 28.4845C21.5379 29.2167 21.4226 29.9897 21.6787 30.5607C22.1321 31.5703 23.5463 31.3498 25.0688 31.3595C25.2948 30.7174 25.4816 29.9963 25.6715 29.2829ZM28.3083 26.3282C28.5251 28.0004 27.6928 29.8461 27.1194 31.4512C27.7041 31.5072 28.2164 31.4426 28.2533 31.4888C28.2917 31.5487 27.8614 33.4047 27.7115 33.4095C27.2475 33.4222 25.71 33.4358 25.0688 33.4358C22.9767 33.4358 21.0195 33.5803 20.0215 32.4775C19.6161 32.0295 19.3359 31.2611 19.268 30.7205C19.155 29.8181 19.2966 28.8245 19.4941 28.0053C19.6726 27.2657 19.9015 26.5678 20.2474 25.9288C21.1266 24.3021 22.6558 23.0947 25.2194 23.3734C25.7167 23.4276 26.4308 23.6584 26.8769 23.9324C26.9077 23.9515 27.0156 24.0426 27.0403 24.0586C27.643 24.4651 28.1922 25.4353 28.3083 26.3282ZM19.0518 25.4592C18.9252 26.0702 18.7987 26.7627 18.6653 27.3664H16.5559C16.7194 26.6972 16.8445 26.0319 17.008 25.4497C17.683 25.4497 18.3105 25.4592 19.0519 25.4592M16.4806 27.9255H18.5147C18.2487 29.4859 17.7221 32.003 17.3093 33.7552C17.0509 34.8518 16.8784 35.6519 16.1793 36.2309C16.1167 36.2828 16.0806 36.2581 16.0285 36.3107C15.8997 36.441 15.3038 36.592 14.974 36.6302C14.4376 36.6918 13.8311 36.6382 13.1719 36.6238C13.3444 35.9555 13.5396 35.1528 13.6933 34.5537C15.3002 34.7599 15.3409 33.1498 15.652 31.599C15.832 30.7029 16.3775 28.2848 16.4806 27.9255Z" fill="white"/>
<path fill-rule="evenodd" clip-rule="evenodd" d="M11.7348 31.9984L11.6913 32.1182C10.9485 33.6515 9.6323 34.5922 7.75495 34.6337C6.87733 34.6529 6.04112 34.4142 5.49486 34.1546C4.31602 33.5931 3.32443 32.5519 2.78294 31.4393C2.00615 29.8445 1.86606 27.626 3.48122 25.969C3.50616 25.969 3.28529 26.3283 3.31023 26.3283L3.26577 26.4816C2.10189 30.3444 5.68775 33.6547 9.17353 33.2761C10.0113 33.1851 11.0795 32.6988 11.7348 31.9984Z" fill="#21609B"/>
<path fill-rule="evenodd" clip-rule="evenodd" d="M9.6264 30.4012C10.5034 30.4075 11.4194 29.973 11.9619 29.363C11.4873 30.64 10.1131 31.4609 8.27049 31.1998C6.72755 30.981 5.25779 29.3351 5.10642 27.6859C4.99572 26.4857 5.39029 25.7694 6.04054 24.9004C5.81457 25.3549 5.73011 25.7053 5.70907 25.9289C5.46207 28.5252 7.66557 30.3875 9.6264 30.4012Z" fill="#21609B"/>
<path fill-rule="evenodd" clip-rule="evenodd" d="M11.8727 27.1763C11.7364 27.5078 10.9515 28.1337 10.6049 28.212C9.23227 28.522 8.35324 27.832 7.89274 27.0469C7.82432 26.9296 7.69778 26.6094 7.67512 26.5279C7.49654 25.8842 7.57862 24.9106 8.11133 24.4067C7.95086 24.8859 7.92744 25.4425 8.0119 25.8043C8.06308 26.0231 8.219 26.405 8.37503 26.6452C8.6589 27.0828 8.839 27.1892 9.20365 27.4216C9.36792 27.5262 9.54411 27.6101 9.62023 27.6331C9.96601 27.741 10.696 28.0252 11.8727 27.1763Z" fill="#21609B"/>
</svg>
