<svg width="94" height="94" viewBox="0 0 94 94" fill="none" xmlns="http://www.w3.org/2000/svg">
<g clip-path="url(#clip0_229_170)">
<path d="M43.8654 77.55V79.1166C43.8654 79.5321 43.7003 79.9306 43.4065 80.2244C43.1127 80.5183 42.7142 80.6833 42.2987 80.6833H29.7654C29.3499 80.6833 28.9514 80.5183 28.6576 80.2244C28.3638 79.9306 28.1987 79.5321 28.1987 79.1166V72.85H39.1654C40.4119 72.85 41.6073 73.3452 42.4888 74.2266C43.3702 75.108 43.8654 76.3035 43.8654 77.55ZM23.4987 88.5166V90.0833C23.4987 90.4988 23.3336 90.8973 23.0398 91.1911C22.746 91.4849 22.3475 91.65 21.932 91.65H9.3987C8.98319 91.65 8.5847 91.4849 8.2909 91.1911C7.99709 90.8973 7.83203 90.4988 7.83203 90.0833V83.8166H18.7987C20.0452 83.8166 21.2407 84.3118 22.1221 85.1932C23.0035 86.0747 23.4987 87.2701 23.4987 88.5166Z" fill="#283593"/>
<path d="M39.1654 77.55V79.1166C39.1654 79.5321 39.0003 79.9306 38.7065 80.2244C38.4127 80.5183 38.0142 80.6833 37.5987 80.6833H29.7654C29.3499 80.6833 28.9514 80.5183 28.6576 80.2244C28.3638 79.9306 28.1987 79.5321 28.1987 79.1166V72.85H34.4654C35.7119 72.85 36.9073 73.3452 37.7888 74.2266C38.6702 75.108 39.1654 76.3035 39.1654 77.55ZM18.7987 88.5166V90.0833C18.7987 90.4988 18.6336 90.8973 18.3398 91.1911C18.046 91.4849 17.6475 91.65 17.232 91.65H9.3987C8.98319 91.65 8.5847 91.4849 8.2909 91.1911C7.99709 90.8973 7.83203 90.4988 7.83203 90.0833V83.8166H14.0987C15.3452 83.8166 16.5407 84.3118 17.4221 85.1932C18.3035 86.0747 18.7987 87.2701 18.7987 88.5166Z" fill="#3F51B5"/>
<path d="M94 88.5166V90.0832C94 90.4987 93.835 90.8972 93.5411 91.191C93.2473 91.4848 92.8488 91.6499 92.4333 91.6499H23.5V90.0832C24.3413 90.0832 24.8019 90.1161 25.3017 89.5349C33.9967 79.4299 32.6431 80.9182 32.994 80.6832H62.2437L73.2793 88.2346C73.8495 88.6372 72.4019 88.5166 94 88.5166Z" fill="#549414"/>
<path d="M89.3 88.5166V90.0832C89.3 90.4987 89.135 90.8972 88.8411 91.191C88.5473 91.4848 88.1488 91.6499 87.7333 91.6499H23.5V90.0832C24.3413 90.0832 24.8019 90.1161 25.3017 89.5349C33.9967 79.4299 32.6431 80.9182 32.994 80.6832H57.5437L66.6773 88.2346C67.2507 88.6388 65.6512 88.5166 89.3 88.5166Z" fill="#60A917"/>
<path d="M25.6456 17.3273C25.3642 17.0457 25.0294 16.823 24.6608 16.6724C24.2923 16.5217 23.8974 16.4461 23.4993 16.4499H13.1906C12.1173 15.1498 11.4489 13.5634 11.2683 11.8872C11.0877 10.211 11.4028 8.5186 12.1746 7.01971C12.9464 5.52081 14.1409 4.28124 15.6102 3.45456C17.0796 2.62787 18.7591 2.25037 20.4409 2.36884C22.1226 2.4873 23.7327 3.09651 25.0716 4.12102C26.4105 5.14552 27.4195 6.5403 27.9735 8.13259C28.5276 9.72487 28.6023 11.4447 28.1885 13.0791C27.7747 14.7134 26.8906 16.1905 25.6456 17.3273Z" fill="#DFC49C"/>
<path d="M21.7605 16.4501H13.1908C12.284 15.3431 11.6667 14.0281 11.3942 12.6233C11.1218 11.2185 11.2028 9.76804 11.6301 8.40236C12.0574 7.03668 12.8174 5.79863 13.8419 4.79959C14.8664 3.80055 16.1232 3.07186 17.4991 2.67908C18.878 3.06831 20.1376 3.79625 21.1632 4.79662C22.1889 5.79699 22.9481 7.03801 23.3716 8.40671C23.7951 9.77541 23.8696 11.2283 23.5882 12.6331C23.3068 14.038 22.6785 15.3501 21.7605 16.4501Z" fill="#FFE0B2"/>
<path d="M39.7139 28.6856L34.7789 34.8426L31.3322 31.396V47.7833H24.6426C25.2473 46.7524 25.0656 47.7833 25.0656 25.85C25.4811 25.85 25.8796 25.6849 26.1734 25.3911C26.4672 25.0973 26.6322 24.6988 26.6322 24.2833V19.5833C27.6764 19.4389 28.7395 19.5284 29.7448 19.8454C30.75 20.1624 31.6722 20.699 32.4446 21.4163L39.7139 28.6856Z" fill="#F44335"/>
<path d="M39.1654 57.1832V72.8499H28.1987L26.632 60.3165C26.632 59.901 26.467 59.5025 26.1732 59.2087C25.8794 58.9149 25.4809 58.7499 25.0654 58.7499C21.6046 58.7499 21.6187 58.6825 21.1487 58.9692C20.9102 59.1039 20.7119 59.2998 20.5742 59.5366C20.4366 59.7734 20.3645 60.0426 20.3654 60.3165L18.7987 83.8165H7.83203V49.3499H21.932C22.4815 49.3493 23.0212 49.2043 23.4969 48.9293C23.9726 48.6543 24.3676 48.2591 24.6424 47.7832H29.7654C32.2584 47.7832 34.6493 48.7736 36.4122 50.5364C38.175 52.2992 39.1654 54.6902 39.1654 57.1832Z" fill="#37474F"/>
<path d="M34.4654 57.1832V72.8499H28.1987L26.632 60.3165C26.632 59.901 26.467 59.5025 26.1732 59.2087C25.8794 58.9149 25.4809 58.7499 25.0654 58.7499C21.6046 58.7499 21.6187 58.6825 21.1487 58.9692C20.6693 58.6809 20.6395 58.7499 17.232 58.7499C16.8165 58.7499 16.418 58.9149 16.1242 59.2087C15.8304 59.5025 15.6654 59.901 15.6654 60.3165L14.0987 83.8165H7.83203V49.3499H17.232C17.7815 49.3493 18.3212 49.2043 18.7969 48.9293C19.2726 48.6543 19.6676 48.2591 19.9424 47.7832H25.0654C27.5584 47.7832 29.9493 48.7736 31.7122 50.5364C33.475 52.2992 34.4654 54.6902 34.4654 57.1832Z" fill="#607D8B"/>
<path d="M25.0661 25.85C25.0661 47.6783 25.2479 46.7524 24.6431 47.7833C24.3684 48.2592 23.9734 48.6544 23.4977 48.9294C23.0219 49.2044 22.4823 49.3494 21.9328 49.35H6.26615C5.4359 49.3475 4.64036 49.0166 4.05328 48.4295C3.46621 47.8424 3.13529 47.0469 3.13281 46.2166V25.85H25.0661Z" fill="#D84315"/>
<path d="M20.3661 25.85C20.3661 47.6783 20.5479 46.7524 19.9431 47.7833C19.6684 48.2592 19.2734 48.6544 18.7977 48.9294C18.3219 49.2044 17.7823 49.3494 17.2328 49.35H6.26615C5.4359 49.3475 4.64036 49.0166 4.05328 48.4295C3.46621 47.8424 3.13529 47.0469 3.13281 46.2166V25.85H20.3661Z" fill="#FF5722"/>
<path d="M56.3995 37.5374V77.55C56.3995 78.381 56.0694 79.178 55.4817 79.7656C54.8941 80.3532 54.0972 80.6834 53.2661 80.6834C52.4351 80.6834 51.6382 80.3532 51.0505 79.7656C50.4629 79.178 50.1328 78.381 50.1328 77.55V38.3834H53.8301C54.7525 38.3682 55.6485 38.0731 56.3995 37.5374Z" fill="#7F6E5D"/>
<path d="M84.6002 18.0165C84.5973 19.4636 84.1935 20.8816 83.4337 22.1132C82.6739 23.3448 81.5878 24.3419 80.2959 24.9938C79.0039 25.6457 77.5566 25.927 76.1146 25.8065C74.6725 25.686 73.292 25.1684 72.1262 24.311C70.9604 23.4537 70.0548 22.2902 69.51 20.9496C68.9652 19.609 68.8023 18.1436 69.0396 16.7161C69.2768 15.2886 69.9049 13.9547 70.8541 12.8624C71.8033 11.77 73.0365 10.962 74.4169 10.5279C75.5914 10.1627 76.8352 10.0786 78.0481 10.2822C79.261 10.4858 80.4092 10.9715 81.4 11.7002C82.3909 12.4288 83.1967 13.38 83.7525 14.4771C84.3084 15.5743 84.5988 16.7866 84.6002 18.0165Z" fill="#FDD834"/>
<path d="M74.4169 25.5053C77.4453 25.5053 79.9003 22.1525 79.9003 18.0166C79.9003 13.8807 77.4453 10.528 74.4169 10.528C71.3886 10.528 68.9336 13.8807 68.9336 18.0166C68.9336 22.1525 71.3886 25.5053 74.4169 25.5053Z" fill="#FFEB3A"/>
<path d="M89.7391 72.85H56.4004V70.1084L65.5811 54.05H81.6864L91.0864 70.5C91.2235 70.7375 91.2959 71.0068 91.2963 71.281C91.2967 71.5552 91.2252 71.8248 91.0888 72.0626C90.9524 72.3005 90.7559 72.4985 90.5191 72.6366C90.2822 72.7748 90.0133 72.8484 89.7391 72.85Z" fill="#37474F"/>
<path d="M85.0391 72.85H56.4004V70.1084L65.5811 54.05H76.9864L86.3864 70.5C86.5235 70.7375 86.5959 71.0068 86.5963 71.281C86.5967 71.5552 86.5252 71.8248 86.3888 72.0626C86.2524 72.3005 86.0559 72.4985 85.8191 72.6366C85.5822 72.7748 85.3133 72.8484 85.0391 72.85Z" fill="#607D8B"/>
<path d="M25.0661 25.85V32.1166C25.0661 33.3632 24.571 34.5586 23.6896 35.44C22.8081 36.3215 21.6127 36.8166 20.3661 36.8166H7.83281C6.5863 36.8166 5.39083 36.3215 4.50941 35.44C3.62799 34.5586 3.13281 33.3632 3.13281 32.1166V25.85H25.0661Z" fill="#F57C00"/>
<path d="M20.3661 25.85V32.1166C20.3661 33.3632 19.871 34.5586 18.9895 35.44C18.1081 36.3215 16.9127 36.8166 15.6661 36.8166H7.83281C6.5863 36.8166 5.39083 36.3215 4.50941 35.44C3.62799 34.5586 3.13281 33.3632 3.13281 32.1166V25.85H20.3661Z" fill="#FF9801"/>
<path d="M26.6331 19.5833V24.2833C26.6331 24.6988 26.468 25.0973 26.1742 25.3911C25.8804 25.6849 25.4819 25.85 25.0664 25.85H3.13307C2.71757 25.85 2.31908 25.6849 2.02527 25.3911C1.73147 25.0973 1.56641 24.6988 1.56641 24.2833V19.5833C1.56889 18.753 1.8998 17.9575 2.48688 17.3704C3.07395 16.7833 3.86949 16.4524 4.69974 16.45H23.4997C24.33 16.4524 25.1255 16.7833 25.7126 17.3704C26.2997 17.9575 26.6306 18.753 26.6331 19.5833Z" fill="#D84315"/>
<path d="M21.9331 19.5833V24.2833C21.9331 24.6988 21.768 25.0973 21.4742 25.3911C21.1804 25.6849 20.7819 25.85 20.3664 25.85H3.13307C2.71757 25.85 2.31908 25.6849 2.02527 25.3911C1.73147 25.0973 1.56641 24.6988 1.56641 24.2833V19.5833C1.56889 18.753 1.8998 17.9575 2.48688 17.3704C3.07395 16.7833 3.86949 16.4524 4.69974 16.45H18.7997C19.63 16.4524 20.4255 16.7833 21.0126 17.3704C21.5997 17.9575 21.9306 18.753 21.9331 19.5833Z" fill="#FF5722"/>
<path d="M50.1326 30.5499V38.3832H40.9206C37.9205 38.3832 36.5653 36.6285 34.7793 34.8425L39.7143 28.6855C41.0569 30.0282 41.3734 30.5499 42.221 30.5499H50.1326Z" fill="#FFE0B2"/>
<path d="M57.9505 34.8741C57.8126 35.8621 57.3169 36.7651 56.5574 37.412C55.798 38.0588 54.8275 38.4045 53.8301 38.3834H50.1328V30.5501H54.0495C54.5987 30.5493 55.1418 30.664 55.6438 30.8868C56.1458 31.1095 56.5953 31.4354 56.9631 31.8431C57.331 32.2509 57.609 32.7314 57.7791 33.2536C57.9492 33.7758 58.0076 34.3279 57.9505 34.8741Z" fill="#DFC49C"/>
<path d="M81.6854 54.05H65.5801C72.4374 42.0305 70.9067 44.6892 72.2697 42.3313C72.4064 42.0902 72.6045 41.8897 72.844 41.7501C73.0834 41.6106 73.3556 41.5371 73.6327 41.5371C73.9099 41.5371 74.1821 41.6106 74.4215 41.7501C74.661 41.8897 74.8591 42.0902 74.9957 42.3313L81.6854 54.05Z" fill="#CFD8DC"/>
<path d="M76.9854 54.05H65.5801L71.2827 44.0547L76.9854 54.05Z" fill="#F5F5F5"/>
<path d="M15.6668 28.9832H12.5335C12.118 28.9832 11.7195 29.1483 11.4257 29.4421C11.1319 29.7359 10.9668 30.1344 10.9668 30.5499C10.9668 30.9654 11.1319 31.3639 11.4257 31.6577C11.7195 31.9515 12.118 32.1165 12.5335 32.1165H15.6668C16.0823 32.1165 16.4808 31.9515 16.7746 31.6577C17.0684 31.3639 17.2335 30.9654 17.2335 30.5499C17.2335 30.1344 17.0684 29.7359 16.7746 29.4421C16.4808 29.1483 16.0823 28.9832 15.6668 28.9832ZM67.3668 18.0165C67.3668 20.5096 68.3571 22.9005 70.12 24.6633C71.8828 26.4262 74.2738 27.4165 76.7668 27.4165C79.2598 27.4165 81.6508 26.4262 83.4136 24.6633C85.1764 22.9005 86.1668 20.5096 86.1668 18.0165C86.1668 15.5235 85.1764 13.1326 83.4136 11.3697C81.6508 9.60689 79.2598 8.61654 76.7668 8.61654C74.2738 8.61654 71.8828 9.60689 70.12 11.3697C68.3571 13.1326 67.3668 15.5235 67.3668 18.0165ZM76.7668 11.7499C78.4288 11.7499 80.0228 12.4101 81.198 13.5853C82.3732 14.7606 83.0335 16.3545 83.0335 18.0165C83.0335 19.6786 82.3732 21.2725 81.198 22.4477C80.0228 23.623 78.4288 24.2832 76.7668 24.2832C75.1048 24.2832 73.5108 23.623 72.3356 22.4477C71.1604 21.2725 70.5001 19.6786 70.5001 18.0165C70.5001 16.3545 71.1604 14.7606 72.3356 13.5853C73.5108 12.4101 75.1048 11.7499 76.7668 11.7499ZM78.3335 3.77397V2.34987C78.3335 1.93436 78.1684 1.53588 77.8746 1.24207C77.5808 0.948262 77.1823 0.783203 76.7668 0.783203C76.3513 0.783203 75.9528 0.948262 75.659 1.24207C75.3652 1.53588 75.2001 1.93436 75.2001 2.34987V3.77397C75.2001 4.18948 75.3652 4.58796 75.659 4.88177C75.9528 5.17558 76.3513 5.34064 76.7668 5.34064C77.1823 5.34064 77.5808 5.17558 77.8746 4.88177C78.1684 4.58796 78.3335 4.18948 78.3335 3.77397ZM75.2001 32.2591V33.6832C75.2001 34.0987 75.3652 34.4972 75.659 34.791C75.9528 35.0848 76.3513 35.2499 76.7668 35.2499C77.1823 35.2499 77.5808 35.0848 77.8746 34.791C78.1684 34.4972 78.3335 34.0987 78.3335 33.6832V32.2591C78.3335 31.8436 78.1684 31.4451 77.8746 31.1513C77.5808 30.8575 77.1823 30.6924 76.7668 30.6924C76.3513 30.6924 75.9528 30.8575 75.659 31.1513C75.3652 31.4451 75.2001 31.8436 75.2001 32.2591ZM92.4335 16.4499H91.0094C90.5939 16.4499 90.1954 16.6149 89.9016 16.9087C89.6077 17.2025 89.4427 17.601 89.4427 18.0165C89.4427 18.432 89.6077 18.8305 89.9016 19.1243C90.1954 19.4181 90.5939 19.5832 91.0094 19.5832H92.4335C92.849 19.5832 93.2475 19.4181 93.5413 19.1243C93.8351 18.8305 94.0001 18.432 94.0001 18.0165C94.0001 17.601 93.8351 17.2025 93.5413 16.9087C93.2475 16.6149 92.849 16.4499 92.4335 16.4499ZM62.5242 19.5832C62.9397 19.5832 63.3382 19.4181 63.632 19.1243C63.9258 18.8305 64.0909 18.432 64.0909 18.0165C64.0909 17.601 63.9258 17.2025 63.632 16.9087C63.3382 16.6149 62.9397 16.4499 62.5242 16.4499H61.1001C60.6846 16.4499 60.2861 16.6149 59.9923 16.9087C59.6985 17.2025 59.5335 17.601 59.5335 18.0165C59.5335 18.432 59.6985 18.8305 59.9923 19.1243C60.2861 19.4181 60.6846 19.5832 61.1001 19.5832H62.5242ZM88.9523 5.831C88.6585 5.5373 88.2601 5.3723 87.8447 5.3723C87.4293 5.3723 87.0309 5.5373 86.7371 5.831L85.7313 6.8368C85.5122 7.0559 85.3631 7.33503 85.3027 7.63889C85.2422 7.94275 85.2732 8.2577 85.3918 8.54393C85.5103 8.83016 85.7111 9.07481 85.9687 9.24697C86.2262 9.41912 86.5291 9.51104 86.8389 9.5111C87.6222 9.5111 87.8886 9.11004 88.9523 8.04627C89.246 7.75248 89.411 7.35406 89.411 6.93864C89.411 6.52321 89.246 6.1248 88.9523 5.831ZM64.5813 30.2021C64.8751 30.4958 65.2735 30.6608 65.6889 30.6608C66.1043 30.6608 66.5027 30.4958 66.7965 30.2021L67.8023 29.1963C68.0877 28.9008 68.2456 28.505 68.2421 28.0943C68.2385 27.6835 68.0737 27.2906 67.7832 27.0001C67.4928 26.7096 67.0998 26.5449 66.6891 26.5413C66.2783 26.5377 65.8825 26.6956 65.5871 26.981L64.5813 27.9868C64.2876 28.2806 64.1226 28.679 64.1226 29.0944C64.1226 29.5099 64.2876 29.9083 64.5813 30.2021ZM87.9465 26.981C87.6511 26.6956 87.2553 26.5377 86.8445 26.5413C86.4338 26.5449 86.0408 26.7096 85.7503 27.0001C85.4599 27.2906 85.2951 27.6835 85.2915 28.0943C85.288 28.505 85.4459 28.9008 85.7313 29.1963C86.6337 30.0987 87.0097 30.6611 87.8447 30.6611C88.1545 30.661 88.4573 30.5691 88.7149 30.397C88.9725 30.2248 89.1732 29.9802 89.2918 29.6939C89.4103 29.4077 89.4414 29.0927 89.3809 28.7889C89.3205 28.485 89.1714 28.2059 88.9523 27.9868L87.9465 26.981ZM66.7965 5.831C66.5011 5.54562 66.1053 5.38771 65.6945 5.39128C65.2838 5.39485 64.8908 5.55961 64.6003 5.85009C64.3099 6.14056 64.1451 6.5335 64.1415 6.94427C64.138 7.35505 64.2959 7.75079 64.5813 8.04627C65.4837 8.94867 65.8597 9.5111 66.6947 9.5111C67.0045 9.51104 67.3073 9.41912 67.5649 9.24697C67.8225 9.07481 68.0232 8.83016 68.1418 8.54393C68.2603 8.2577 68.2914 7.94275 68.2309 7.63889C68.1705 7.33503 68.0214 7.0559 67.8023 6.8368L66.7965 5.831Z" fill="#F2F2F2"/>
<path d="M92.4333 86.9499C73.0991 86.9499 74.3133 87.0737 73.7305 86.6617L64.39 79.9845C63.5942 79.4178 62.641 79.1143 61.664 79.1166H57.6737C58.0591 78.0371 57.962 78.2346 57.962 70.5328L66.4862 55.6166H80.7836L91.0735 73.6332C91.1728 73.817 91.3078 73.979 91.4706 74.1098C91.6335 74.2406 91.8208 74.3375 92.0217 74.3949C92.2225 74.4522 92.4328 74.4688 92.6401 74.4437C92.8475 74.4186 93.0477 74.3522 93.229 74.2486C93.4104 74.145 93.5691 74.0062 93.696 73.8403C93.8229 73.6744 93.9154 73.4848 93.968 73.2827C94.0205 73.0805 94.0322 72.8699 94.0021 72.6632C93.9721 72.4566 93.9011 72.2579 93.7932 72.0791L76.3499 41.5432C76.075 41.0644 75.6783 40.6668 75.2002 40.3907C74.7222 40.1145 74.1796 39.9695 73.6275 39.9705C73.0754 39.9714 72.5333 40.1183 72.0562 40.3961C71.579 40.6739 71.1838 41.0729 70.9105 41.5526L57.9667 64.216V38.2093C58.7174 37.4437 59.2244 36.4727 59.4238 35.4191C59.6232 34.3655 59.506 33.2764 59.087 32.2894C58.6679 31.3023 57.9659 30.4615 57.0694 29.8731C56.173 29.2847 55.1223 28.975 54.05 28.9832H42.2373L33.558 20.3039C32.8154 19.5675 31.9338 18.9861 30.9645 18.5934C29.9952 18.2008 28.9575 18.0047 27.9117 18.0166C27.8429 17.8264 27.7623 17.6406 27.6705 17.4604C28.825 16.0744 29.5901 14.4062 29.8871 12.627C30.1841 10.8477 30.0025 9.02145 29.3607 7.33558C28.719 5.64971 27.6403 4.16491 26.2354 3.03352C24.8304 1.90213 23.1497 1.16488 21.3658 0.897422C19.5818 0.62996 17.7589 0.841913 16.0839 1.51153C14.4089 2.18115 12.9422 3.28433 11.8343 4.70789C10.7264 6.13144 10.0171 7.82412 9.7793 9.61226C9.54149 11.4004 9.78367 13.2196 10.481 14.8832H4.7C3.45348 14.8832 2.25802 15.3784 1.3766 16.2598C0.495177 17.1413 0 18.3367 0 19.5832L0 24.2832C0.00165118 24.8308 0.147272 25.3683 0.422252 25.8418C0.697233 26.3153 1.0919 26.7082 1.56667 26.981V46.2166C1.56667 47.4631 2.06184 48.6586 2.94326 49.54C3.82469 50.4214 5.02015 50.9166 6.26667 50.9166V90.0833H1.56667C1.15116 90.0833 0.752673 90.2483 0.458866 90.5421C0.165059 90.8359 0 91.2344 0 91.6499C0 92.0654 0.165059 92.4639 0.458866 92.7577C0.752673 93.0515 1.15116 93.2166 1.56667 93.2166H22.0587C22.737 93.2162 23.4072 93.0689 24.0233 92.785C24.6393 92.501 25.1866 92.0871 25.6275 91.5716L33.1475 82.7982C33.4483 82.4536 33.8839 82.2546 34.3413 82.2499C64.0062 82.2499 61.9648 82.1105 62.5695 82.5382L71.91 89.2153C72.7058 89.782 73.659 90.0855 74.636 90.0833H92.4333C92.8488 90.0833 93.2473 89.9182 93.5411 89.6244C93.8349 89.3306 94 88.9321 94 88.5166C94 88.1011 93.8349 87.7026 93.5411 87.4088C93.2473 87.115 92.8488 86.9499 92.4333 86.9499ZM73.6333 43.1083L78.9929 52.4832H68.2785L73.6333 43.1083ZM52.1449 78.6356C52.0017 78.4938 51.8885 78.3245 51.8121 78.138C51.7357 77.9515 51.6975 77.7515 51.7 77.5499V39.9499C52.745 40.0173 53.7946 39.986 54.8333 39.8575V77.5499C54.8318 77.8608 54.7377 78.1642 54.5632 78.4214C54.3887 78.6787 54.1416 78.8782 53.8534 78.9946C53.5651 79.111 53.2487 79.1391 52.9445 79.0751C52.6403 79.0112 52.3619 78.8582 52.1449 78.6356ZM55.7937 32.8889C56.1027 33.2441 56.2992 33.683 56.3583 34.15C56.4174 34.617 56.3363 35.091 56.1255 35.5119C55.9146 35.9328 55.5835 36.2815 55.174 36.5138C54.7646 36.7461 54.2954 36.8515 53.826 36.8166H51.7V32.1166C54.2333 32.1166 54.9399 31.9489 55.7937 32.8889ZM48.5667 32.1166V36.8166H40.9213C40.1352 36.7876 39.3652 36.5852 38.6665 36.2239C37.9677 35.8626 37.3574 35.3513 36.8793 34.7267L39.8435 31.0293L40.0174 31.2032C40.6033 31.786 41.396 32.1134 42.2217 32.1166H48.5667ZM37.6141 28.7999L34.6515 32.4988L32.4425 30.2898C32.2236 30.0704 31.9445 29.9208 31.6405 29.86C31.3365 29.7992 31.0214 29.83 30.7349 29.9484C30.4484 30.0668 30.2035 30.2676 30.0311 30.5252C29.8588 30.7829 29.7667 31.0859 29.7667 31.3959V46.2166H26.6333V26.981C27.1081 26.7082 27.5028 26.3153 27.7778 25.8418C28.0527 25.3683 28.1983 24.8308 28.2 24.2832V21.1687C29.3766 21.2157 30.4936 21.6982 31.3333 22.5239L37.6141 28.7999ZM7.83333 35.2499C7.00232 35.2499 6.20535 34.9198 5.61773 34.3322C5.03012 33.7446 4.7 32.9476 4.7 32.1166V27.4166H23.5V32.1166C23.5 32.9476 23.1699 33.7446 22.5823 34.3322C21.9947 34.9198 21.1977 35.2499 20.3667 35.2499H7.83333ZM19.8497 3.91658C21.1677 3.91739 22.459 4.28864 23.5761 4.98799C24.6933 5.68734 25.5914 6.68662 26.168 7.87183C26.7446 9.05704 26.9765 10.3805 26.8372 11.6911C26.6978 13.0017 26.1929 14.2468 25.38 15.2843C24.1705 14.7501 24.4196 14.8832 14.0091 14.8832C13.297 13.8241 12.8862 12.5912 12.8207 11.3165C12.7553 10.0418 13.0377 8.77336 13.6376 7.64681C14.2376 6.52027 15.1326 5.57805 16.2268 4.92098C17.321 4.26392 18.5733 3.91673 19.8497 3.91658ZM3.13333 19.5832C3.13333 19.1677 3.29839 18.7693 3.5922 18.4754C3.88601 18.1816 4.28449 18.0166 4.7 18.0166H23.5C23.9155 18.0166 24.314 18.1816 24.6078 18.4754C24.9016 18.7693 25.0667 19.1677 25.0667 19.5832V24.2832H3.13333V19.5832ZM4.7 46.2166V37.5122C5.64783 38.0762 6.7304 38.377 7.83333 38.3832V41.5166C7.83333 41.9321 7.99839 42.3306 8.2922 42.6244C8.58601 42.9182 8.98449 43.0832 9.4 43.0832C9.81551 43.0832 10.214 42.9182 10.5078 42.6244C10.8016 42.3306 10.9667 41.9321 10.9667 41.5166V38.3832H17.2333V41.5166C17.2333 41.9321 17.3984 42.3306 17.6922 42.6244C17.986 42.9182 18.3845 43.0832 18.8 43.0832C19.2155 43.0832 19.614 42.9182 19.9078 42.6244C20.2016 42.3306 20.3667 41.9321 20.3667 41.5166V38.3832C21.47 38.3768 22.5516 38.0761 23.5 37.5122C23.5 46.9012 23.5877 46.4892 23.2916 46.9921C23.155 47.2319 22.9574 47.4314 22.7189 47.5703C22.4804 47.7093 22.2094 47.7827 21.9333 47.7832H6.26667C5.85116 47.7832 5.45267 47.6182 5.15887 47.3244C4.86506 47.0306 4.7 46.6321 4.7 46.2166ZM24.1 50.3682C24.5897 50.0918 25.0389 49.7492 25.4348 49.3499H29.7667C31.8434 49.3524 33.8344 50.1785 35.3029 51.647C36.7714 53.1155 37.5975 55.1065 37.6 57.1833V71.2832H29.5834L28.2 60.2038C28.1708 59.3925 27.8278 58.6242 27.2433 58.0607C26.6588 57.4973 25.8785 57.1827 25.0667 57.1833H21.9333C21.1183 57.1772 20.3334 57.4913 19.7475 58.0579C19.1615 58.6245 18.8213 59.3984 18.8 60.2132L17.3336 82.2499H9.4V50.9166C23.1632 50.9166 22.7558 51.0732 24.1 50.3682ZM9.4 90.0833V85.3832H18.8C19.631 85.3832 20.428 85.7134 21.0156 86.301C21.6032 86.8886 21.9333 87.6856 21.9333 88.5166V90.0833H9.4ZM24.9664 87.5312C24.7761 86.3487 24.2499 85.2458 23.4505 84.3539C22.6511 83.462 21.6122 82.8187 20.4575 82.5006L21.9333 60.3166H25.0667C25.0667 60.3808 25.0714 60.4466 25.0792 60.5108C26.8997 75.4365 26.6333 71.3475 26.6333 79.1166C26.6371 79.9019 26.9357 80.6571 27.4698 81.2327C28.004 81.8083 28.7348 82.1624 29.5176 82.2249L24.9664 87.5312ZM29.7667 79.1166V74.4166H39.1667C39.9977 74.4166 40.7947 74.7467 41.3823 75.3343C41.9699 75.9219 42.3 76.7189 42.3 77.5499V79.1166H29.7667ZM40.7333 71.5057V57.1833C40.7267 54.8277 39.9611 52.537 38.5501 50.6507C37.1391 48.7645 35.1578 47.3832 32.9 46.7116V35.1778L35.38 37.6579C36.8534 39.1216 38.8445 39.9452 40.9213 39.9499H48.5667C48.5667 81.0906 48.446 77.9682 48.8502 79.1166H45.4333V77.5499C45.4281 76.1646 44.9641 74.8201 44.1137 73.7266C43.2634 72.633 42.0746 71.852 40.7333 71.5057Z" fill="#F2F2F2"/>
</g>
<defs>
<clipPath id="clip0_229_170">
<rect width="94" height="94" fill="white"/>
</clipPath>
</defs>
</svg>
