<svg width="54" height="54" viewBox="0 0 54 54" fill="none" xmlns="http://www.w3.org/2000/svg">
<path d="M17.1993 43.8834C17.1622 43.8177 17.1291 43.7499 17.1002 43.6802C16.9004 43.2179 16.8389 42.7077 16.9231 42.2111H5.10275L22.6693 11.2976L28.4363 21.4354L30.1086 18.4765L25.0814 9.62013C24.8405 9.16649 24.4896 8.7805 24.0609 8.49747C23.6323 8.21444 23.1395 8.0434 22.6277 8C22.1171 8.02338 21.6232 8.18957 21.2024 8.47967C20.7815 8.76977 20.4505 9.17214 20.2469 9.64104L2.4511 40.9296C2.18505 41.3714 2.03165 41.8718 2.0044 42.3868C1.97714 42.9018 2.07687 43.4156 2.29481 43.883C2.56855 44.3145 2.95759 44.6608 3.4179 44.8828C3.87822 45.1047 4.39146 45.1934 4.89958 45.1389H19.8041C19.2959 45.1943 18.7824 45.106 18.3219 44.8841C17.8615 44.6621 17.4725 44.3154 17.1993 43.8834Z" fill="#00C492"/>
<path d="M51.4685 40.9295L36.8454 15.1683C36.6055 14.7098 36.2541 14.3191 35.8234 14.0323C35.3927 13.7456 34.8967 13.5719 34.3812 13.5273C33.871 13.5493 33.3771 13.7144 32.9561 14.0036C32.5352 14.2929 32.204 14.6947 32.0005 15.1631L30.1094 18.4764L31.792 21.4354L34.3964 16.825L48.8638 42.2111H43.3624C43.4329 42.6308 43.3934 43.0615 43.2479 43.4614C43.2173 43.5497 43.1789 43.6351 43.1332 43.7167L43.0863 43.8104C42.7874 44.2325 42.3891 44.5745 41.9266 44.8061C41.4642 45.0377 40.9518 45.1519 40.4347 45.1385H49.0409C49.558 45.1524 50.0706 45.0385 50.5331 44.8068C50.9957 44.5751 51.3939 44.2329 51.6925 43.8104C51.9282 43.3573 52.0322 42.8472 51.9926 42.3379C51.953 41.8287 51.7714 41.3408 51.4685 40.9295Z" fill="#008776"/>
<path d="M43.086 43.8106L43.1328 43.7168C43.1785 43.6352 43.2169 43.5498 43.2475 43.4615C43.393 43.0616 43.4325 42.6309 43.3621 42.2112C43.281 41.7586 43.1186 41.3244 42.8828 40.9297L31.8025 21.4355L30.1094 18.4766L28.4267 21.4355L17.3512 40.9302C17.1362 41.3296 16.9917 41.7632 16.924 42.2117C16.8349 42.7068 16.891 43.217 17.0856 43.6808C17.1144 43.7505 17.1475 43.8184 17.1847 43.884C17.4585 44.3155 17.8476 44.6617 18.3079 44.8836C18.7682 45.1054 19.2815 45.1941 19.7895 45.1395H40.4188C40.9384 45.1548 41.4538 45.0414 41.9191 44.8096C42.3844 44.5777 42.7852 44.2346 43.086 43.8106ZM30.109 24.3945L40.2364 42.2112H19.9869L30.109 24.3945Z" fill="#2D4A5D"/>
</svg>
