<svg width="95" height="94" viewBox="0 0 95 94" fill="none" xmlns="http://www.w3.org/2000/svg">
<path d="M73.5147 15.7664C71.3234 6.3299 61.2081 5.23519 61.2081 5.23519C61.2081 5.23519 54.8077 -1.17642 46.2048 1.33936C37.7809 3.80106 32.3167 16.2662 26.293 19.3415C27.9304 19.9718 29.6517 20.0408 31.4849 19.3415C30.241 20.6301 29.5174 22.3571 29.1146 24.3544L69.8147 32.5582C69.8147 32.5582 75.7041 25.2011 73.5147 15.7664Z" fill="#604533"/>
<path d="M69.8144 32.5582C70.0401 32.603 70.2527 32.6608 70.4727 32.7485C72.7293 33.6548 73.742 36.6238 72.7349 39.382C71.8621 41.771 69.7585 43.2424 67.7462 42.9999H67.7444C66.1665 39.6517 66.4264 35.87 69.8144 32.5582Z" fill="#F7B6AD"/>
<path d="M60.4549 11.9526C60.0894 16.5292 58.8026 20.2404 56.1451 22.8046C53.0424 31.7339 57.6918 39.5841 65.7681 46.9573C66.0087 46.6253 66.2231 46.3008 66.4115 45.9856C66.8926 45.1837 67.3402 44.1729 67.7449 42.9999C68.7016 40.2305 69.4252 36.5547 69.815 32.5582C68.3491 24.0784 61.7548 19.9718 60.4549 11.9526Z" fill="#FEC4B9"/>
<path d="M68.7617 63.1747C67.1747 62.0707 65.3098 61.2893 63.5045 60.7373C61.9085 68.8779 65.5621 74.7947 75.7384 77.9487C77.4771 79.7345 79.295 79.1109 80.4884 77.1393C78.616 72.8108 72.9783 66.1064 68.7617 63.1747ZM54.9818 68.7881C54.6206 60.9322 49.4074 59.985 42.7871 61.0413C38.6693 63.0498 33.6713 66.6304 29.5088 72.5683C26.2801 78.8194 27.4531 83.4407 32.5636 86.7268C36.202 85.095 38.8577 83.1331 38.8577 83.1331V93.2541H70.9567V89.3266L54.9818 68.7881Z" fill="#F69552"/>
<path d="M81.1129 79.297C81.0626 78.6909 80.8425 77.958 80.4882 77.1392C79.069 77.0106 77.2208 77.3537 75.7382 77.9486C75.2235 76.2087 74.4141 74.1889 73.1366 72.2923C69.8861 67.464 65.8672 63.833 63.5043 60.7372C62.5196 59.4467 61.824 58.2513 61.589 57.0988C61.4025 56.1775 61.3578 55.204 61.3988 54.2175C64.9714 46.2845 66.1816 40.4847 60.0896 41.2786L40.3625 44.8854H40.3606C35.7884 47.5222 36.4088 50.8461 39.9261 54.5532C40.0324 54.7807 40.1592 55.0007 40.3102 55.2096C40.3102 55.2096 39.6668 57.7739 40.963 59.6425C41.2315 60.0286 41.8936 60.5116 42.7869 61.0412C45.0639 62.3896 48.8367 64.0288 51.3655 65.0751C52.1889 65.4159 52.9341 65.9209 53.5558 66.5593C54.1775 67.1977 54.6627 67.956 54.9816 68.7881C56.8931 73.7544 61.0743 84.1495 63.4558 86.4695C65.2704 88.2374 68.2226 89.1195 70.9565 89.3265C72.9781 89.4813 74.8785 89.265 76.1112 88.7633C79.0111 87.5847 81.4206 83.0026 81.1129 79.297Z" fill="#FEC4B9"/>
<path d="M42.0368 22.8046C42.0368 22.8046 34.909 21.6931 31.209 23.1441C30.4929 23.4257 29.7898 23.8434 29.1147 24.3544C26.2968 26.4841 23.9843 30.227 23.436 32.3661C22.7553 35.0199 23.8836 47.1382 23.2495 50.4633C22.6173 53.7885 15.4467 66.4718 14.2065 72.462C12.9682 78.4521 14.848 87.8401 22.386 88.7856C25.8138 89.2164 29.5306 88.0863 32.5629 86.7268C33.5775 80.7124 32.4044 76.0911 29.5082 72.5683C30.823 65.1291 32.4902 55.2897 32.3485 53.9582C32.3186 53.6803 32.2664 53.423 32.1955 53.1805L39.7242 42.2129L39.7466 42.211L44.0341 32.9405C44.9634 29.5361 44.124 26.1604 42.0368 22.8046Z" fill="#FEC4B9"/>
<path d="M59.344 25.8594H57.3672L56.1457 22.8047C55.9363 22.281 55.5747 21.8321 55.1076 21.516C54.6406 21.1998 54.0895 21.031 53.5255 21.0311H44.6578C43.5034 21.0311 42.4665 21.7342 42.0375 22.8047L40.816 25.8594H36.1649C32.6159 25.8594 29.7402 28.737 29.7402 32.2841V32.5806C30.5403 31.9894 31.5212 31.3982 32.5525 31.0868C35.0814 30.3203 40.1987 30.324 41.8828 30.6318C43.5668 30.9413 44.0349 32.9405 44.0349 32.9405L57.0073 33.9756C56.4523 36.874 57.3939 39.5644 60.09 41.2786C60.09 41.2786 62.4846 42.7221 62.5349 45.512C62.5741 47.6473 61.5335 51.0023 61.3992 54.2174C63.9392 53.3596 65.7687 50.9576 65.7687 48.1285V32.2841C65.7687 28.737 62.893 25.8594 59.344 25.8594ZM40.3628 44.8854H40.361C40.361 44.8854 38.6098 47.5429 39.7045 50.1202C39.7045 50.1202 38.9996 52.5689 39.9264 54.5531H36.1649C34.7252 54.5558 33.3268 54.0721 32.1963 53.1805C31.7115 51.532 30.4097 50.6536 30.2419 49.3742C30.0479 47.9103 30.5366 46.3661 32.2075 45.029C33.8785 43.6918 39.725 42.2129 39.725 42.2129L39.7474 42.2111C41.012 42.9063 41.2228 43.8033 40.3628 44.8854Z" fill="#524956"/>
<path d="M60.0906 41.2786C60.0906 44.0946 58.9492 46.6421 57.1048 48.4865C55.2604 50.3309 52.7129 51.4723 49.8988 51.4723C47.0827 51.4723 44.5352 50.3309 42.6908 48.4865C41.6782 47.4739 40.8781 46.2486 40.3634 44.8854C40.0368 44.0263 39.8297 43.1265 39.748 42.2111C39.72 41.9033 39.7051 41.5938 39.7051 41.2786C39.7051 40.2119 39.8692 39.1824 40.175 38.2145C40.6413 36.7338 41.4376 35.3966 42.4745 34.2945C42.5472 34.218 42.6181 34.1453 42.6908 34.0725C43.1048 33.6585 43.5543 33.2799 44.0354 32.9405C45.6952 31.7731 47.7149 31.0868 49.8988 31.0868C52.6626 31.0868 55.1709 32.189 57.0078 33.9756C58.9101 35.8274 60.0906 38.4159 60.0906 41.2786Z" fill="#5D5560"/>
<path d="M49.8976 47.9028C53.5561 47.9028 56.5219 44.9371 56.5219 41.2786C56.5219 37.6202 53.5561 34.6544 49.8976 34.6544C46.2392 34.6544 43.2734 37.6202 43.2734 41.2786C43.2734 44.9371 46.2392 47.9028 49.8976 47.9028Z" fill="#655F68"/>
<path d="M80.4878 77.1392C79.0686 77.0105 77.2204 77.3536 75.7378 77.9486C75.2231 76.2086 74.4137 74.1889 73.1362 72.2922C69.8857 67.464 65.8668 63.833 63.5039 60.7372C65.3092 61.2892 67.1741 62.0706 68.7611 63.1746C72.9777 66.1063 78.6154 72.8107 80.4878 77.1392Z" fill="#DD864A"/>
<path d="M81.1128 79.2969C81.4206 83.0025 79.0111 87.5847 76.1111 88.7633C74.8784 89.265 72.978 89.4813 70.9565 89.3265C70.0371 89.2556 69.0953 89.1102 68.1777 88.8789C77.9108 89.3936 76.6072 82.5438 76.6072 82.5438C76.6072 82.5438 76.5065 80.5595 75.7381 77.9486C77.2207 77.3537 79.0689 77.0105 80.4881 77.1392C80.8424 77.9579 81.0625 78.6908 81.1128 79.2969Z" fill="#F7B6AD"/>
<path d="M70.9557 89.3265V93.254C60.0832 92.8232 60.514 81.9955 60.5252 81.7642C61.605 83.9201 62.6363 85.6712 63.455 86.4694C64.6598 87.6425 66.3662 88.4257 68.177 88.8789C69.0946 89.1102 70.0363 89.2556 70.9557 89.3265ZM32.2269 69.1312C32.4376 71.8689 32.0926 74.0658 31.5219 75.789C30.9942 74.6253 30.3191 73.5548 29.5078 72.5683C30.3825 71.3207 31.2925 70.1774 32.2269 69.1312Z" fill="#DD864A"/>
<path d="M29.509 72.5684C30.3202 73.5549 30.9953 74.6254 31.5231 75.7891C30.2848 79.5301 27.9797 81.0463 27.9797 81.0463C27.9797 81.0463 28.6735 77.2903 29.509 72.5684ZM32.9162 83.1481C32.8901 84.2819 32.7744 85.4755 32.5637 86.7269C29.5313 88.0864 25.8145 89.2165 22.3868 88.7857C20.2179 88.5135 18.519 87.5437 17.2266 86.1562H17.2284C22.9146 88.4985 28.7443 85.9772 32.9162 83.1481Z" fill="#F7B6AD"/>
<path d="M38.8586 78.0642V83.1331C38.8586 83.1331 36.2029 85.095 32.5645 86.7268C32.7752 85.4754 32.8908 84.2819 32.9169 83.148C36.4976 80.7199 38.8586 78.0642 38.8586 78.0642Z" fill="#DD864A"/>
<path d="M49.8973 48.6491C53.9612 48.6491 57.2673 45.343 57.2673 41.2791C57.2673 37.2153 53.9612 33.9089 49.8973 33.9089C45.8335 33.9089 42.5273 37.2153 42.5273 41.2791C42.5273 45.343 45.8335 48.6491 49.8973 48.6491ZM49.8973 35.4011C53.1386 35.4011 55.7754 38.0381 55.7754 41.2793C55.7754 44.5204 53.1386 47.1574 49.8973 47.1574C46.6563 47.1574 44.0193 44.5204 44.0193 41.2793C44.0193 38.0379 46.6563 35.4011 49.8973 35.4011Z" fill="#F2F2F2"/>
<path d="M81.8566 79.2352C81.5134 75.0966 74.1962 66.0459 69.1872 62.5622C67.7665 61.5744 66.0081 60.7482 63.9632 60.1011C63.1186 58.968 62.5177 57.9178 62.3209 56.9505C62.1773 56.2446 62.1246 55.499 62.1322 54.7357C63.4319 54.1879 64.541 53.2687 65.3205 52.0933C66.1001 50.9179 66.5155 49.5385 66.5146 48.1281V47.1902C66.703 46.9233 66.8821 46.6498 67.0515 46.3704C67.4827 45.6519 67.8885 44.7755 68.2635 43.7672C70.4361 43.7232 72.5467 42.0751 73.4364 39.6386C74.5405 36.6148 73.4521 33.3374 71.0102 32.1714C72.5099 29.9229 76.0777 23.5079 74.2415 15.5971C73.2951 11.52 70.7509 8.30509 66.884 6.30011C64.482 5.05471 62.2876 4.64051 61.549 4.5288C60.3874 3.45293 54.1981 -1.7752 45.9956 0.622719C40.9327 2.10272 36.9136 7.01251 33.3676 11.3442C30.8009 14.4797 28.3767 17.4412 25.9546 18.678C25.8262 18.7436 25.7197 18.8449 25.6477 18.9697C25.5758 19.0945 25.5415 19.2375 25.5491 19.3814C25.5567 19.5253 25.6058 19.6639 25.6904 19.7805C25.7751 19.8971 25.8917 19.9867 26.0262 20.0384C27.2341 20.5028 28.4554 20.6707 29.6768 20.5425C29.1354 21.5026 28.7283 22.6284 28.4425 23.9341C25.611 26.1759 23.3032 29.8804 22.7129 32.1811C22.3433 33.6222 22.4597 37.3457 22.5826 41.2879C22.6973 44.9598 22.8157 48.7568 22.5177 50.3239C22.2605 51.6761 20.7109 54.9737 19.0702 58.4646C16.7853 63.3265 14.1953 68.8373 13.4767 72.3106C12.6759 76.1814 13.0896 81.7948 15.8191 85.6101C17.4151 87.8411 19.6537 89.1954 22.2928 89.5264C22.8317 89.5939 23.375 89.6255 23.9216 89.6255C29.6454 89.6249 35.6197 86.1701 38.1105 84.5471V93.2539C38.1105 93.4517 38.1891 93.6414 38.329 93.7813C38.4689 93.9212 38.6586 93.9998 38.8565 93.9998H70.9559C71.1538 93.9998 71.3435 93.9212 71.4834 93.7813C71.6233 93.6414 71.7019 93.4517 71.7019 93.2539V90.1131C71.8673 90.1178 72.0323 90.1219 72.1951 90.1219C73.8488 90.1217 75.3456 89.8804 76.3929 89.4543C79.5883 88.1546 82.1923 83.284 81.8566 79.2352ZM68.3355 63.7871C72.302 66.5457 77.1816 72.3283 79.3057 76.3849C78.3186 76.4436 77.2392 76.6519 76.221 76.9828C75.6867 75.3685 74.904 73.5802 73.7567 71.8759C71.7332 68.8705 69.4321 66.3398 67.4017 64.1072C66.8914 63.5482 66.3847 62.9858 65.8818 62.4201C66.7932 62.8306 67.6155 63.2864 68.3355 63.7871ZM65.0228 48.1279C65.023 49.1136 64.7663 50.0824 64.2782 50.9388C63.79 51.7951 63.0872 52.5095 62.2389 53.0116C62.3629 51.8332 62.5753 50.6499 62.7763 49.5356C63.0462 48.0397 63.3011 46.6267 63.2808 45.4991C63.2355 42.9992 61.5886 41.4625 60.826 40.8842C60.7266 38.0568 59.5661 35.4263 57.5273 33.4413C55.4737 31.4419 52.7639 30.3408 49.8974 30.3408C47.9336 30.3408 46.0499 30.8571 44.3977 31.8216C44.0191 31.0779 43.2974 30.1327 42.017 29.8985C40.2841 29.5814 35.0047 29.5635 32.3365 30.3729C31.7319 30.5564 31.1474 30.8246 30.6031 31.1314C31.1374 28.5513 33.4277 26.6058 36.1639 26.6058H40.8165C40.9656 26.6058 41.1113 26.5611 41.2348 26.4774C41.3583 26.3938 41.4538 26.2751 41.5091 26.1366L42.7299 23.0822C42.8828 22.6961 43.1484 22.365 43.4922 22.1322C43.8361 21.8994 44.2421 21.7756 44.6573 21.7769H53.5258C54.3797 21.7769 55.1363 22.2892 55.4532 23.0822L56.6739 26.1366C56.7293 26.2751 56.8248 26.3938 56.9483 26.4774C57.0717 26.5611 57.2174 26.6058 57.3666 26.6058H59.3438C62.4752 26.6058 65.0225 29.1533 65.0225 32.2845V48.1279H65.0228ZM33.0795 54.6041C34.0336 55.0606 35.0778 55.2986 36.1639 55.2986H39.4779C39.4904 55.3196 39.5056 55.3398 39.5185 55.3607C39.3768 56.182 39.1571 58.3473 40.3495 60.0672C40.5302 60.3279 40.8519 60.6265 41.3111 60.9614C38.2591 62.6053 34.3801 65.3218 30.7754 69.6771C31.8319 63.5991 32.9208 56.968 33.0795 54.6041ZM38.9327 50.1959C38.9126 50.2428 38.8973 50.2916 38.887 50.3416C38.7492 51.0159 38.5547 52.4027 38.8865 53.8066H36.1637C34.9489 53.8066 33.8018 53.4284 32.8283 52.7186C32.5471 51.9148 32.1107 51.286 31.7373 50.7489C31.3645 50.2127 31.0426 49.7497 30.9805 49.2775C30.7979 47.8898 31.3675 46.6563 32.6735 45.6116C33.6552 44.8265 36.6469 43.8261 39.1198 43.1463C39.216 43.7109 39.3569 44.2669 39.5411 44.8091C39.0801 45.6547 38.0775 47.9038 38.9327 50.1959ZM40.451 41.2792C40.451 40.3105 40.597 39.3648 40.8764 38.4654L40.8773 38.4628C41.3258 37.0203 42.1192 35.698 43.218 34.5994C45.0021 32.8152 47.3743 31.8326 49.8974 31.8326C52.3729 31.8326 54.713 32.7835 56.4865 34.5101C58.3291 36.3039 59.3438 38.708 59.3438 41.279C59.3438 43.802 58.3611 46.1744 56.577 47.9586C54.7928 49.7426 52.4204 50.7252 49.8974 50.7252C47.3743 50.7252 45.0019 49.7426 43.218 47.9586C41.4336 46.1746 40.451 43.8024 40.451 41.2792ZM66.5148 44.1224V32.2845C66.5148 28.3306 63.298 25.1138 59.3441 25.1138H57.8722L57.0206 22.9835C58.7979 21.1216 60.0079 18.6914 60.6789 15.6201C61.6313 18.1269 63.0302 20.2939 64.3966 22.4106C66.3335 25.4113 68.3344 28.5143 69.0621 32.5929C68.5966 37.2789 67.6727 41.4189 66.5148 44.1224ZM72.0353 39.1265C71.4354 40.7701 70.154 41.9479 68.7835 42.2195C69.5147 39.8128 70.0924 36.8545 70.4595 33.567C72.1526 34.4463 72.862 36.8619 72.0353 39.1265ZM32.1077 18.9309C32.0142 18.7893 31.8753 18.6839 31.7138 18.632C31.5524 18.58 31.3781 18.5847 31.2196 18.6452C30.1831 19.0403 29.1684 19.1754 28.1507 19.0502C30.2937 17.4546 32.3594 14.9312 34.5224 12.2889C38.0976 7.92128 41.7948 3.40463 46.4144 2.05423C54.4756 -0.300978 60.6211 5.70203 60.6813 5.76226C60.8015 5.88239 60.959 5.95803 61.1279 5.97673C61.1522 5.97934 63.5913 6.26225 66.2421 7.64751C69.7331 9.47197 71.9356 12.26 72.7884 15.9341C74.326 22.5585 71.6741 28.1854 70.1669 30.6942C69.2143 27.127 67.4073 24.3233 65.6502 21.6014C63.6762 18.5435 61.8114 15.6549 61.1915 11.8324C61.1311 11.4598 60.8007 11.1937 60.4251 11.2065C60.2428 11.2139 60.0697 11.2878 59.9382 11.4142C59.8068 11.5407 59.7262 11.7109 59.7117 11.8926C59.3729 16.1355 58.2448 19.3143 56.2767 21.5789C55.6122 20.7712 54.6156 20.2852 53.5261 20.2852H44.6577C43.3931 20.2852 42.254 20.9399 41.6141 21.9927C39.8495 21.7611 34.2191 21.1635 30.9367 22.4505C30.7329 22.5304 30.5301 22.6229 30.3282 22.7224C30.7416 21.552 31.3017 20.6069 32.0221 19.8602C32.1399 19.7381 32.2126 19.5795 32.2281 19.4105C32.2437 19.2416 32.2012 19.0724 32.1077 18.9309ZM22.4789 88.0464C20.2318 87.7645 18.3996 86.6528 17.0328 84.7423C14.5655 81.2939 14.2029 76.1656 14.9379 72.6131C15.6208 69.3125 18.1707 63.8865 20.4206 59.0993C22.1755 55.3651 23.6913 52.1403 23.9835 50.6025C24.3121 48.8741 24.1965 45.1666 24.0738 41.2413C23.9595 37.5767 23.841 33.7874 24.1581 32.5519C24.8291 29.9365 28.1994 25.1258 31.4809 23.8392C34.1843 22.7795 38.9734 23.1846 40.9881 23.4201L40.3113 25.1136H36.1639C32.2351 25.1136 29.0358 28.29 28.9951 32.2091C27.9709 33.0047 27.2973 33.7359 27.246 33.7923C27.1485 33.899 27.0841 34.0319 27.0608 34.1746C27.0374 34.3173 27.0561 34.4638 27.1144 34.5961C27.1728 34.7284 27.2684 34.8408 27.3896 34.9198C27.5108 34.9987 27.6523 35.0407 27.7969 35.0406C27.9005 35.0408 28.003 35.0193 28.0978 34.9775C28.1927 34.9358 28.2777 34.8747 28.3476 34.7982C28.3685 34.7753 30.4734 32.4969 32.7695 31.8005C35.1949 31.0646 40.1785 31.0784 41.7484 31.3658C42.5162 31.5062 42.9442 32.2022 43.1503 32.6716C42.8042 32.9428 42.4745 33.2343 42.1628 33.5444C42.1475 33.5597 42.1335 33.5757 42.1184 33.591C40.6763 33.7924 33.7701 34.7933 31.4697 35.7987C28.8819 36.9298 27.0425 39.161 26.9655 39.2556C26.8763 39.3648 26.82 39.4972 26.803 39.6372C26.786 39.7772 26.8091 39.9192 26.8696 40.0467C26.93 40.1741 27.0254 40.2818 27.1446 40.3572C27.2639 40.4326 27.402 40.4726 27.5431 40.4726C27.6537 40.4727 27.7629 40.4483 27.8629 40.401C27.9628 40.3537 28.051 40.2848 28.121 40.1992C28.1378 40.1789 29.8176 38.1491 32.0672 37.1655C33.7029 36.4505 38.1829 35.6939 40.7335 35.303C40.2637 36.0186 39.8806 36.7875 39.5922 37.5935C38.0635 37.9954 32.6519 39.4618 30.8742 40.5306C28.778 41.7905 27.6505 43.6034 27.6035 43.6801C27.5341 43.7931 27.496 43.9225 27.4933 44.0551C27.4905 44.1877 27.5232 44.3186 27.5879 44.4344C27.6526 44.5502 27.747 44.6466 27.8613 44.7137C27.9757 44.7809 28.1059 44.8163 28.2385 44.8164C28.3662 44.8165 28.4918 44.7838 28.6033 44.7215C28.7147 44.6591 28.8083 44.5692 28.875 44.4604C28.8847 44.4447 29.8556 42.8838 31.6428 41.8094C32.9189 41.0421 36.7862 39.8995 39.1465 39.2569C39.022 39.9236 38.9591 40.6004 38.9587 41.2786C38.9587 41.3998 38.9635 41.5201 38.9674 41.6406C37.0712 42.1523 33.172 43.3015 31.7414 44.4458C29.5718 46.1815 29.3256 48.1367 29.5011 49.4714C29.6105 50.3028 30.0688 50.962 30.5119 51.5995C30.9966 52.297 31.4979 53.0179 31.606 54.0364C31.7673 55.555 29.0867 70.9395 27.2455 80.9097C27.2095 81.1043 27.2523 81.3052 27.3645 81.4681C27.4767 81.6311 27.649 81.7429 27.8435 81.7788C28.0381 81.8147 28.2389 81.7719 28.4019 81.6597C28.5649 81.5476 28.6767 81.3753 28.7126 81.1807C28.8566 80.401 29.3409 77.769 29.9378 74.4243C31.9769 77.6144 32.6164 81.4881 31.8906 86.199C29.0229 87.4457 25.6026 88.4373 22.4789 88.0464ZM70.2101 92.5081H39.6028V78.0637C39.6028 77.8658 39.5242 77.6761 39.3843 77.5362C39.2444 77.3963 39.0547 77.3177 38.8568 77.3177C38.659 77.3177 38.4693 77.3963 38.3294 77.5362C38.1895 77.6761 38.1109 77.8658 38.1109 78.0637V82.7461C37.4449 83.207 35.7318 84.3414 33.4969 85.4516C34.094 80.3271 33.0687 75.9936 30.4406 72.5459C34.5819 66.8201 39.3466 63.6081 42.765 61.8855C44.5879 62.9302 47.3659 64.2267 51.0807 65.7645C52.5469 66.3714 53.7152 67.5709 54.2863 69.0554C56.4744 74.7432 60.5077 84.6385 62.9351 87.0038C64.7515 88.7736 67.5336 89.7036 70.2101 90.007V92.5081ZM75.831 88.0722C73.15 89.163 66.8516 88.7366 63.9764 85.935C62.3523 84.3524 59.3277 78.0048 55.6788 68.5194C54.9616 66.655 53.4935 65.1483 51.6511 64.3856C44.9376 61.6065 42.0444 59.8935 41.5755 59.2169C41.0546 58.4656 40.9092 57.5547 40.8984 56.8099C43.2249 58.6191 47.3881 60.3452 47.947 60.5729C48.129 60.6415 48.3306 60.6363 48.5088 60.5585C48.687 60.4806 48.8277 60.3363 48.9011 60.1562C48.9745 59.9761 48.9746 59.7745 48.9016 59.5943C48.8285 59.4141 48.6879 59.2695 48.5099 59.1914C46.7736 58.4838 42.025 56.311 40.9146 54.7723C40.2997 53.9202 40.1686 52.8382 40.1957 51.9516C42.6139 54.2322 47.519 56.356 48.1839 56.6376C48.366 56.7147 48.5714 56.7164 48.7547 56.6422C48.9381 56.568 49.0845 56.4241 49.1618 56.242C49.2391 56.0599 49.2408 55.8545 49.1666 55.6711C49.0924 55.4877 48.9484 55.3413 48.7663 55.2641C45.9061 54.0509 41.1031 51.5025 40.3917 49.8285C39.9087 48.6919 40.0821 47.5233 40.3667 46.65C40.8558 47.5156 41.4601 48.3108 42.1632 49.0138C44.2291 51.0797 46.976 52.2175 49.8976 52.2175C52.8191 52.2175 55.5662 51.0797 57.6321 49.0138C59.3261 47.3199 60.3947 45.1677 60.7251 42.8371C61.2415 43.4457 61.7678 44.3503 61.7891 45.526C61.807 46.5066 61.5645 47.8489 61.3081 49.2704C60.8516 51.8003 60.3342 54.6678 60.859 57.2476C61.3521 59.6716 63.5346 62.0718 66.2977 65.1103C68.2937 67.3055 70.5561 69.7933 72.5189 72.7087C75.5488 77.2094 75.8605 82.5278 75.8633 82.5811C75.8734 82.7787 75.9616 82.9642 76.1085 83.0967C76.1812 83.1624 76.2661 83.2131 76.3584 83.2459C76.4507 83.2787 76.5486 83.293 76.6464 83.288C76.7443 83.283 76.8402 83.2588 76.9287 83.2167C77.0171 83.1746 77.0965 83.1155 77.1621 83.0428C77.2277 82.9701 77.2784 82.8851 77.3112 82.7928C77.344 82.7005 77.3583 82.6027 77.3533 82.5048C77.347 82.3786 77.2502 80.6973 76.6462 78.413C77.7642 78.0465 78.9838 77.8442 79.9844 77.8604C80.2007 78.4262 80.3346 78.9322 80.3699 79.3583C80.6479 82.7113 78.3996 87.0274 75.831 88.0722Z" fill="#F2F2F2"/>
</svg>
