<svg width="95" height="94" viewBox="0 0 95 94" fill="none" xmlns="http://www.w3.org/2000/svg">
<g clip-path="url(#clip0_229_133)">
<mask id="mask0_229_133" style="mask-type:luminance" maskUnits="userSpaceOnUse" x="2" y="1" width="93" height="93">
<path d="M2 1H95V94H2V1Z" fill="white"/>
</mask>
<g mask="url(#mask0_229_133)">
<path d="M92.54 56.0641L92.5398 56.067C92.0609 62.7996 89.8532 69.0643 86.3541 74.4011C79.4725 84.9203 67.5906 91.8687 54.0883 91.8687C45.7104 91.8687 37.9555 89.179 31.6343 84.6188C21.8906 77.5913 15.5378 66.1121 15.5378 53.1887V52.8769L15.7197 52.6238L38.399 21.0593L38.5793 20.8084L38.8716 20.7083L56.0385 14.8303L56.2191 14.7684L56.4096 14.7798C60.9596 15.0508 65.2926 16.1087 69.2822 17.8239L69.2825 17.824C70.5295 18.3606 71.7476 18.9623 72.9317 19.6265L72.9324 19.6269C84.6867 26.2334 92.6336 38.8285 92.6336 53.2852C92.6336 54.2213 92.6025 55.1475 92.54 56.0641Z" fill="#A6E7F0" stroke="#F2F2F2" stroke-width="1.93618"/>
<path fill-rule="evenodd" clip-rule="evenodd" d="M72.4592 20.4709C83.9208 26.9129 91.6666 39.1923 91.6666 53.2852C91.6666 54.1998 91.6361 55.104 91.5753 55.9983C90.7175 61.7289 80.8141 61.1802 80.2914 56.1862C79.8092 51.5884 75.5708 51.4716 73.6216 51.2786C68.8197 50.7909 66.6421 47.3565 72.7739 39.2989C77.8803 32.5878 59.155 25.7749 68.9009 18.7131C70.1169 19.2366 71.3046 19.8233 72.4592 20.4709Z" fill="#80D261"/>
<path fill-rule="evenodd" clip-rule="evenodd" d="M57.4542 28.7824L59.8094 30.8754C61.0073 31.9423 61.1191 33.7968 60.053 35.0008L54.2562 41.5292L49.8301 38.2827L50.1093 32.6588L53.3375 29.0262C54.4036 27.8223 56.2563 27.7154 57.4542 28.7824Z" fill="#838383"/>
<path fill-rule="evenodd" clip-rule="evenodd" d="M50.1096 32.6587L54.2567 41.5291L56.0687 45.4156C57.414 48.2912 56.4445 51.2023 55.3683 52.4114L53.2771 54.7636C51.6984 56.5468 50.3889 56.0132 49.1198 54.0878L36.9121 36.022L38.6278 27.8781L47.2874 26.613L50.1096 32.6587Z" fill="#ACACAC"/>
<path fill-rule="evenodd" clip-rule="evenodd" d="M27.8269 44.2625L32.3191 53.3056C33.4205 55.5259 32.6085 57.8272 31.7708 58.7722L30.6237 60.0626C29.3902 61.4546 28.3649 61.0431 27.3751 59.5343L20.2129 51.1669L21.9083 46.2742L27.8269 44.2625Z" fill="#ACACAC"/>
<path fill-rule="evenodd" clip-rule="evenodd" d="M10.517 33.9187L19.8719 37.2107L19.8314 43.6224L13.9891 45.4919L4.91838 39.5632C3.30917 38.7554 2.77615 37.785 4.01478 36.398L5.16188 35.1025C5.99955 34.1626 8.18213 33.0958 10.517 33.9187Z" fill="#ACACAC"/>
<path fill-rule="evenodd" clip-rule="evenodd" d="M64.6674 72.9009C68.0124 67.3378 78.3166 66.0677 85.5447 73.8711C78.8343 84.1286 67.2512 90.9006 54.089 90.9006C45.9219 90.9006 38.3637 88.2792 32.2015 83.8339C31.8615 73.5258 40.1809 70.8534 46.8863 76.3962C49.7747 78.7788 60.4493 79.9323 64.6674 72.9009Z" fill="#80D261"/>
<path fill-rule="evenodd" clip-rule="evenodd" d="M27.4766 3.10096C28.1669 3.10096 28.8572 3.33983 29.4055 3.83251L31.7607 5.9257C32.9638 6.99264 33.0702 8.85193 32.0044 10.0511L28.7811 13.6835H21.9083L19.4922 10.6047L25.2888 4.07637C25.5622 3.76909 25.8977 3.52327 26.273 3.35513C26.6484 3.187 27.0551 3.10037 27.4664 3.10096H27.4766Z" fill="#838383"/>
<path fill-rule="evenodd" clip-rule="evenodd" d="M19.4907 10.6049L28.7797 13.6836L35.1044 15.7768L33.9877 23.9562L26.9929 27.1975L7.62816 17.1841C5.56732 16.1477 4.88713 14.913 6.47093 13.13L8.56216 10.7776C9.63319 9.56852 12.4098 8.26288 15.4199 9.25873L19.4907 10.6049Z" fill="#ACACAC"/>
<path fill-rule="evenodd" clip-rule="evenodd" d="M46.2317 4.96056C49.3433 4.03598 53.4598 3.4212 55.4192 5.18415C57.3988 6.92151 57.2669 11.0825 56.7136 14.2831C56.6295 14.7791 56.5091 15.2682 56.3532 15.7464C55.6324 18.0122 54.0842 20.4354 51.4649 22.8283L47.2874 26.6133L36.9122 36.0222L20.1973 51.1517L19.4865 51.8223C18.4713 52.6655 17.4461 53.0924 16.5069 53.1889C13.3395 53.514 11.1315 50.0848 13.3598 46.3762L13.9893 45.4921L26.9938 27.1975L35.1051 15.7766L38.3742 11.1841C40.8867 7.66835 43.6378 5.73282 46.2317 4.96056Z" fill="#ECECEC"/>
<path fill-rule="evenodd" clip-rule="evenodd" d="M43.8148 23.1737L33.4395 32.5827L16.7244 47.7122L16.0138 48.3828C14.9935 49.2259 13.9733 49.6527 13.0343 49.7492C12.8413 49.7696 12.6536 49.7748 12.4707 49.7696C12.6586 51.9085 14.3641 53.4071 16.5062 53.1887C17.4453 53.0922 18.4705 52.6655 19.4857 51.8223L20.1965 51.1515L36.9116 36.022L47.2868 26.6133L51.4643 22.8282C54.0834 20.4354 55.6317 18.012 56.3524 15.7462C56.5083 15.268 56.6288 14.779 56.7128 14.2831C57.2661 11.0824 57.398 6.92148 55.4184 5.18394C54.8601 4.68095 54.1291 4.37116 53.2916 4.20853C53.7839 6.18477 53.6064 8.72496 53.241 10.8485C53.1569 11.3428 53.0364 11.8302 52.8805 12.3067C52.1596 14.5724 50.6115 16.9958 47.9923 19.3887L43.8148 23.1737Z" fill="#CECECE"/>
<path fill-rule="evenodd" clip-rule="evenodd" d="M51.6629 51.7865L39.4502 33.7205L36.9121 36.022L49.1198 54.0878C50.3889 56.0132 51.6984 56.5468 53.2771 54.7636L54.419 53.4784C53.4292 53.783 52.5359 53.1174 51.6629 51.7865Z" fill="#838383"/>
<path fill-rule="evenodd" clip-rule="evenodd" d="M57.9723 33.1465L52.9727 38.7807L54.2568 41.5292L60.0534 35.001C61.1195 33.7968 61.0079 31.9425 59.8099 30.8756L57.739 29.0314V29.0365C58.9266 30.1033 59.0332 31.9526 57.9723 33.1465Z" fill="#595959"/>
<path fill-rule="evenodd" clip-rule="evenodd" d="M25.627 12.7085L28.7801 13.6833L32.0032 10.051C33.0692 8.85198 32.9626 6.99252 31.7597 5.92558L30.1455 4.48788C31.3383 5.5598 30.6673 7.2266 29.5812 8.41031L25.627 12.7085Z" fill="#595959"/>
<path fill-rule="evenodd" clip-rule="evenodd" d="M28.8508 24.5759L9.491 14.5625C8.04939 13.8411 7.283 13.0182 7.49628 11.9765L6.47093 13.13C4.88713 14.913 5.56732 16.1476 7.62816 17.1839L26.9929 27.1975L28.8508 24.5759Z" fill="#838383"/>
<path fill-rule="evenodd" clip-rule="evenodd" d="M29.5527 57.558L22.3905 49.1906L20.2129 51.1668L27.3751 59.5342C28.3649 61.043 29.3902 61.4547 30.6237 60.0626L31.6592 58.8992C30.9079 59.0972 30.2227 58.5741 29.5527 57.558Z" fill="#838383"/>
<path fill-rule="evenodd" clip-rule="evenodd" d="M15.6995 43.0838L6.63393 37.1549C5.54762 36.6063 4.95381 35.9917 5.06027 35.2192L4.01466 36.398C2.7762 37.785 3.30922 38.7553 4.91826 39.5631L13.989 45.4919L15.6995 43.0838Z" fill="#838383"/>
<path fill-rule="evenodd" clip-rule="evenodd" d="M91.6667 53.2852C91.6667 39.1922 83.9209 26.9129 72.4593 20.4709C71.8407 20.1236 71.2128 19.7932 70.5762 19.4802C76.7231 27.619 80.53 38.9077 80.53 51.3852C80.53 53.0872 80.4589 54.7636 80.3219 56.4098C81.1087 61.1955 90.7327 61.6425 91.5754 55.9983C91.6363 55.1039 91.6667 54.1998 91.6667 53.2852Z" fill="#4FC122"/>
<path fill-rule="evenodd" clip-rule="evenodd" d="M91.5757 55.9983C90.7331 61.6426 81.1091 61.1954 80.3224 56.4097C79.9519 60.8245 79.1092 65.0414 77.8555 68.9686C80.5153 69.7508 83.1953 71.3309 85.5455 73.8711C88.9566 68.6688 91.1088 62.5622 91.5757 55.9983Z" fill="#6BD9E7"/>
<path fill-rule="evenodd" clip-rule="evenodd" d="M77.8546 68.9685C75.1795 77.3713 70.6415 84.4585 64.9414 89.3103C73.4892 86.7296 80.758 81.1868 85.5446 73.871C83.1944 71.3308 80.5144 69.7508 77.8546 68.9685Z" fill="#4FC122"/>
</g>
</g>
<defs>
<clipPath id="clip0_229_133">
<rect width="94" height="94" fill="white" transform="translate(0.5)"/>
</clipPath>
</defs>
</svg>
