<svg width="1440" height="750" viewBox="0 0 1440 750" fill="none" xmlns="http://www.w3.org/2000/svg">
<g opacity="0.5">
<mask id="mask0_44_945" style="mask-type:alpha" maskUnits="userSpaceOnUse" x="0" y="0" width="1440" height="750">
<rect width="1440" height="750" fill="url(#paint0_linear_44_945)"/>
</mask>
<g mask="url(#mask0_44_945)">
<mask id="mask1_44_945" style="mask-type:luminance" maskUnits="userSpaceOnUse" x="7" y="-318" width="1440" height="1440">
<path d="M1447 -318H7V1122H1447V-318Z" fill="white"/>
</mask>
<g mask="url(#mask1_44_945)">
<path d="M1447.71 -318.245L1447.62 -318.418C1447.59 -318.46 1447.55 -318.498 1447.5 -318.533C1447.46 -318.538 1447.41 -318.538 1447.36 -318.533H1447.23H7.0009C6.86016 -318.536 6.72266 -318.49 6.6121 -318.403C5.8633 -317.885 6.6121 1122.73 6.6121 1122.73C6.9577 1123.02 730.932 1122.91 731.379 1122.91H1225.7C1262.32 1122.91 1447.74 1123.3 1447.74 1122.19C1447.74 1121.84 1447.74 -318.13 1447.71 -318.245ZM1446.27 1116.96L1374.68 872.88L1446.3 590.64L1446.27 1116.96ZM1421.47 -7.39197L1446.3 -300.979V125.621L1421.47 -7.39197ZM1446.3 187.181L1371.62 195.072L1446.3 134.909V187.181ZM1446.3 188.621V295.44L1370.68 196.627L1446.3 188.621ZM1225.63 1120.68L1131.31 996.936L1372.12 874.608L1225.63 1120.68ZM1243.64 760.56L1445.76 586.882L1373.56 871.541L1243.64 760.56ZM578.364 -186.96L671.979 -271.488L647.326 -119.366L578.364 -186.96ZM1368.35 196.382L1310.36 343.493L1256.6 138.394L1368.35 196.382ZM1369.64 874.219L1130.29 995.842L1033.17 924.72L1369.64 874.219ZM128.148 -241.234L207.881 -161.04C207.132 -145.56 201.646 -32.3184 200.883 -16.68C198.737 -23.376 130.092 -235.243 128.148 -241.234ZM334.371 -222.614L210.243 -162.941L288.996 -316.416L334.371 -222.614ZM591.425 945.226L792.031 952.901L617.95 996.533L591.425 945.226ZM1441.62 583.642L1188.59 562.56L1131.94 472.474L1441.62 583.642ZM1128.76 641.328L973.759 782.16C972.319 772.973 944.067 595.911 942.468 585.888L1128.76 641.328ZM117.42 -30.5184L199.27 -12.4896L129.905 22.2C128.436 15.9648 118.918 -24.24 117.42 -30.5184ZM1002.27 12.9696L952.937 -136.474L1060.07 -75.144L1002.27 12.9696ZM1165.74 41.9136L1296.85 -146.28C1299.23 -133.219 1318.06 -29.568 1320.44 -16.4496L1165.74 41.9136ZM1298.22 -146.928L1381.64 -111.302L1321.65 -17.9184C1317.96 -38.1648 1300.81 -132.571 1298.21 -146.928H1298.22ZM1319.62 -14.6064L1269.09 71.3617L1166.2 43.296L1319.62 -14.6064ZM518.518 -117.091L481.913 -35.4144L370.673 -108.638L518.518 -117.091ZM303.555 937.435L234.593 891.701L424.601 808.915L303.555 937.435ZM388.601 647.794L426.257 804.754L299.177 689.554L388.601 647.794ZM127.212 528.864L122.993 250.238C125.455 256.214 187.202 406.752 190.543 414.874L127.212 528.864ZM239.331 238.603L191.206 412.699L123.267 247.099L239.331 238.603ZM677.091 572.323L547.001 867.638C547.375 864.946 590.46 546.864 590.849 544.042L677.091 572.323ZM379.241 73.2625L516.919 128.054L377.83 149.122L379.241 73.2625ZM847.486 127.349L906.526 106.44L882.363 212.381C857.191 151.008 862.073 162.96 847.486 127.349ZM881.34 213.749L764.7 187.512L846.19 128.04L881.34 213.749ZM786.847 325.982L882.391 216.01L971.801 382.056L786.847 325.982ZM590.201 542.069L445.74 385.31L659.465 479.933L590.201 542.069ZM477.622 263.055L598.999 346.286L657.967 475.296L477.622 263.055ZM600.857 344.947L678.185 201.638L784.14 325.795L600.857 344.947ZM599.331 344.76L475.246 259.67L676.601 201.538L599.331 344.76ZM720.391 368.88L604.428 346.099L782.743 327.451L720.391 368.88ZM474.713 258.331L520.073 129.35L675.982 200.213L474.713 258.331ZM442.414 382.042L242.873 238.762L472.683 260.045L442.414 382.042ZM441.492 383.15L316.601 449.894L241.721 239.741L441.492 383.15ZM317.465 451.032L442.083 384.475L435.473 541.68L317.465 451.032ZM473.935 260.88L658.255 477.73L443.695 382.834L473.935 260.88ZM600.814 346.718L719.441 370.032L660.833 478.032C652.74 460.392 607.308 361.003 600.814 346.776V346.718ZM784.457 323.938L679.481 200.89L762.454 188.707L784.457 323.938ZM317.681 453.019L435.243 543.307L389.163 644.885L317.681 453.019ZM722.047 369.499L785.018 327.667L795.243 400.877L722.047 369.499ZM786.041 324.859L763.894 188.88L881.196 215.261C870.022 228.062 795.588 313.757 786.041 324.73V324.859ZM378.521 150.619L518.59 129.408C515.09 139.387 480.055 239.021 473.316 258.158L378.521 150.619ZM315.003 449.995L192.228 414.571L240.396 240.331L315.003 449.995ZM315.939 452.558L387.377 644.208L259.98 527.15L315.939 452.558ZM443.321 388.061L491.186 570.48L436.87 542.63L443.321 388.061ZM444.228 385.858L588.905 542.717L492.799 570.984L444.228 385.858ZM660.228 481.114L677.047 570.826L591.641 542.789L660.228 481.114ZM662.547 477.83L720.78 370.493L794.523 402L662.547 477.83ZM796.683 401.179L786.372 327.379L969.641 382.906L796.683 401.179ZM982.443 148.474L972.535 380.602L883.371 215.002L982.443 148.474ZM763.145 186.907L681.425 87.8065L844.851 127.262L763.145 186.907ZM761.705 187.354L678.847 199.536C679.049 183.898 680.143 97.4113 680.287 88.656L761.705 187.354ZM678.761 87.5473L677.321 199.248L521.801 128.544L678.761 87.5473ZM212.201 20.8032L377.801 72.7296L376.361 148.517L212.201 20.8032ZM376.966 150.907L471.833 258.518L242.441 237.278L376.966 150.907ZM192.905 416.126L314.931 451.334L259.087 525.955L192.905 416.126ZM436.481 544.07L490.927 571.992L390.876 644.583L436.481 544.07ZM589.351 544.07L545.561 867.941L493.116 572.395L589.351 544.07ZM879.166 470.429L663.641 478.896L796.121 402.835L879.166 470.429ZM982.846 145.939L908.772 105.158L1001.12 16.5552L982.846 145.939ZM982.025 147.134L883.716 213.144L908.052 106.397L982.025 147.134ZM907.001 104.05L719.57 -31.9008L923.475 -9.23517L907.001 104.05ZM720.939 -29.1216L905.964 105.101L846.78 126.082L720.939 -29.1216ZM520.188 127.478L483.31 -32.88L677.71 86.2945L520.188 127.478ZM518.647 127.19L379.803 71.9377L481.812 -32.88L518.647 127.19ZM209.58 20.6304L375.857 149.957C370.226 153.557 246.473 233.03 240.843 236.645C239.374 226.45 211.049 30.696 209.58 20.5872V20.6304ZM387.823 646.57L298.385 688.33L260.268 529.354L387.823 646.57ZM678.588 570.811L661.639 480.408L877.755 471.941L678.588 570.811ZM941.849 583.771L882.291 471.739H1127.62L941.849 583.771ZM881.052 470.011L797.935 402.331L971.225 384.187L881.052 470.011ZM983.998 148.56L1119.73 257.179L974.047 381.624L983.998 148.56ZM1118.8 254.587L984.113 146.803L1002.44 17.0592L1118.8 254.587ZM924.886 -8.93277L1000.69 14.928L908.527 103.358L924.886 -8.93277ZM717.223 -31.44L844.635 125.693L680.474 86.0641C684.42 73.3057 713.278 -18.84 717.223 -31.44ZM679.092 85.4737L484.793 -33.6143L715.956 -32.1744C710.052 -13.3536 682.159 75.6816 679.092 85.5024V85.4737ZM379.169 70.4977L369.262 -107.875L481.092 -34.2624L379.169 70.4977ZM367.822 -107.76L377.758 71.2465L210.127 18.6864L367.822 -107.76ZM208.097 20.4L239.258 235.723L113.172 101.04L208.097 20.4ZM238.74 237.278L122.892 245.76L112.999 103.056L238.74 237.278ZM191.321 416.4L257.719 526.603L127.745 530.923C137.94 512.534 185.143 427.574 191.321 416.4ZM258.411 528.029L296.599 687.278L128.321 532.234L258.411 528.029ZM427.481 803.962L389.854 647.002L490.999 573.562C490.308 576.413 429.583 796.56 427.481 803.962ZM710.383 830.544L546.828 871.555L677.667 574.555C679.02 585.11 708.814 818.275 710.383 830.544ZM679.236 572.107L879.713 472.56L790.145 694.32L679.236 572.107ZM791.988 693.643L881.182 472.79L940.654 584.635L791.988 693.643ZM1128.65 472.877L1089.39 562.589L945.003 583.613L1128.65 472.877ZM1130.33 639.6L1091.08 563.914H1186.74L1130.33 639.6ZM1091 562.474C1097.21 548.261 1126.14 482.15 1130.33 472.56L1186.88 562.474H1091ZM882.895 470.314L973.371 384.072L1127.45 470.314H882.895ZM1120.21 258.634L1129.44 469.824L974.508 383.122L1120.21 258.634ZM1003.32 15.5616L1162.96 43.9872L1120.57 254.904L1003.32 15.5616ZM925.145 -10.3584L951.814 -135.278L1000.93 13.5024L925.145 -10.3584ZM718.764 -33.3984L813.386 -108.278L922.135 -10.8192L718.764 -33.3984ZM200.911 -11.6544L207.723 18.2976L132.843 22.3872L200.911 -11.6544ZM113.302 99.0673L130.006 23.928L206.527 19.7664L113.302 99.0673ZM424.975 805.531L268.62 770.093L298.198 690.619L424.975 805.531ZM425.191 807.058L234.204 890.29L268.159 771.461L425.191 807.058ZM428.345 806.496L492.137 575.146L544.61 871.239L428.345 806.496ZM711.622 828.902L679.063 574.023L789.483 695.76L711.622 828.902ZM1089.49 564.029L1128.76 639.83L944.887 585.11L1089.49 564.029ZM1188.18 564.446L1241.08 634.603L1131.64 640.205L1188.18 564.446ZM1166.2 44.7936L1268.58 72.7152L1255.08 135.6L1166.2 44.7936ZM1061.18 -74.208L1161.98 42.3456L1003.26 14.0928C1015.36 -4.36798 1049.29 -56.0784 1061.18 -74.208ZM923.849 -11.28L814.956 -108.869L950.719 -137.15L923.849 -11.28ZM715.481 -33.6432L485.283 -35.0832L647.628 -116.976L715.481 -33.6432ZM367.375 -110.338L210.545 -161.501L334.889 -221.261L367.375 -110.338ZM209.062 17.6496L202.236 -12.4032L360.636 -103.886L209.062 17.6496ZM125.815 531.226L55.1545 588.322L121.596 253.262L125.815 531.226ZM126.507 532.522L294.483 687.192L55.4425 589.92L126.507 532.522ZM302.287 938.328L101.58 1053.87L233.239 892.522L302.287 938.328ZM541.759 874.392L308.163 1037.04L304.404 938.846L541.759 874.392ZM305.931 937.003L427.639 807.749L543.674 872.376L305.931 937.003ZM546.713 873.067L708.655 832.459L590.359 943.339L546.713 873.067ZM711.06 832.171L795.66 951.691L591.972 943.886L711.06 832.171ZM712.039 831.048L789.727 698.266L796.323 950.05L712.039 831.048ZM791.801 695.602L941.086 586.162L972.363 782.362L791.801 695.602ZM1131.84 641.645L1241.84 636V758.703L1131.84 641.645ZM1121.99 255.12L1164.26 44.88L1254.46 137.04L1121.99 255.12ZM1321.43 -14.8656L1385.08 43.0224L1270.93 71.1024C1281.56 52.9584 1310.95 2.97601 1321.43 -14.8656ZM1164.47 41.1072V-91.8336L1295.2 -146.554L1164.47 41.1072ZM1163.03 -91.4592V41.4672L1062.52 -74.8992L1163.03 -91.4592ZM811.471 -108.61L717.05 -33.9168L649.37 -117.077L811.471 -108.61ZM483.641 -35.904L520.059 -117.149H644.734L483.641 -35.904ZM517.121 -118.459L368.931 -109.992L336.531 -220.771L517.121 -118.459ZM117.146 -32.0592L127.068 -239.894L200.35 -13.728L117.146 -32.0592ZM111.387 101.458L121.236 243.427L8.8441 52.08L111.387 101.458ZM232.764 890.16L123.857 771.36H266.705L232.764 890.16ZM232.145 891.6L99.4633 1054.19L122.791 772.31L232.145 891.6ZM972.003 783.758L797.763 950.798L791.11 696.926L972.003 783.758ZM1189.72 564.101L1442.58 585.197L1242.82 634.43L1189.72 564.101ZM1132.12 470.99L1251.1 412.901L1443.72 582.893L1132.12 470.99ZM1250.08 411.806L1130.94 469.954L1121.72 259.21L1250.08 411.806ZM1386.45 42.3168L1323.36 -15.0959L1419.5 -6.74399L1386.45 42.3168ZM1322.51 -16.608L1382.52 -110.021L1419.64 -8.16956L1322.51 -16.608ZM1298.13 -148.526L1329.01 -249.586L1381.41 -112.958L1298.13 -148.526ZM1138.7 -281.928L1163.02 -92.9136L1062.22 -76.3104C1064.75 -83.1648 1136.15 -275.102 1138.7 -281.928ZM1060 -76.8576L953.354 -137.885L1037.55 -168.758L1060 -76.8576ZM950.705 -138.576L814.538 -110.208L889.721 -315.883C893.105 -306.034 949.452 -142.234 950.705 -138.576ZM521.196 -118.589L577.356 -185.938L646.102 -118.589H521.196ZM575.916 -186.47L519.511 -118.79L339.065 -221.03L575.916 -186.47ZM209.292 -160.392L366.699 -109.056L202.207 -14.016C204.569 -63.12 206.729 -107.558 209.292 -160.392ZM115.779 -32.3184L65.0617 -41.16L125.542 -238.195C125.499 -237.23 115.865 -34.2192 115.779 -32.3184ZM115.865 -30.8784L128.148 20.9616L66.3001 -39.5184L115.865 -30.8784ZM128.465 24.1584L111.631 99.9601L9.2041 50.64L128.465 24.1584ZM57.9769 592.498L297.017 689.77L267.382 769.402L57.9769 592.498ZM122.777 769.891C119.465 761.122 59.1433 601.411 55.7737 592.469L265.682 769.891H122.777ZM302.979 939.581C303.497 952.987 306.233 1024.41 306.751 1037.79L101.724 1055.44L302.979 939.581ZM545.359 873.629L589.121 944.088L311.993 1036.25L545.359 873.629ZM589.855 945.37L616.466 996.821L314.931 1036.74L589.855 945.37ZM1130.2 642.019L1241.08 759.941L975.401 782.664L1130.2 642.019ZM1240.19 761.453L1031.65 923.064L974.292 784.205L1240.19 761.453ZM1033.97 923.078L1242.52 761.453L1372.26 872.333L1033.97 923.078ZM1243.26 758.918V635.813L1444.25 586.32L1243.26 758.918ZM1252.2 411.878L1310.09 346.935L1444.24 581.424L1252.2 411.878ZM1251.19 410.842L1123.52 259.066L1309.03 345.941L1251.19 410.842ZM1122.15 256.934L1255.09 138.322C1257.45 147.293 1306.34 333.859 1309.14 344.501L1122.15 256.934ZM1256.32 136.622L1269.81 73.8384L1366.53 193.819L1256.32 136.622ZM1386.22 44.232L1445.26 132.072L1271.97 72.3264L1386.22 44.232ZM1296.94 -149.707L1176.28 -316.344L1328.06 -251.386L1296.94 -149.707ZM1164.42 -93.36L1139.94 -283.152L1295.84 -148.339L1164.42 -93.36ZM1137.06 -281.51L1061.24 -77.8512L1038.85 -169.522L1137.06 -281.51ZM952.159 -138.95C948.804 -148.685 894.689 -305.99 891.492 -315.307L1036.74 -169.997L952.159 -138.95ZM673.476 -271.747L811.716 -110.035L648.593 -118.546C651.113 -133.68 671.086 -257.016 673.476 -271.747ZM572.345 -188.4L335.825 -222.96L290.537 -316.56C298.068 -313.118 561.963 -193.152 572.345 -188.4ZM64.2697 -39.4608L127.961 22.8336L8.5417 49.2864L64.2697 -39.4608ZM8.0089 53.5201L121.452 246.624L54.3337 585.024C52.1305 559.651 10.2121 78.7921 8.0089 53.5201ZM845.081 1036.91L797.993 952.541C804.084 946.709 960.05 797.208 970.793 786.941L845.081 1036.91ZM973.241 785.299L1030.48 923.914L846.881 1036.51L973.241 785.299ZM1311.51 344.659L1369.46 197.52L1445.85 297.24L1311.51 344.659ZM1369.41 195.086L1271.55 73.6801L1445.56 133.656C1433.29 143.549 1377.49 188.477 1369.37 195.029L1369.41 195.086ZM1387.4 43.44L1420.35 -5.51996L1445.66 130.085L1387.4 43.44ZM1383.45 -111.648L1445.75 -311.534L1420.29 -10.6752L1383.45 -111.648ZM1382.63 -113.822C1377.45 -127.315 1335.83 -235.819 1329.83 -251.472L1445.79 -316.56C1443.79 -310.123 1387.18 -128.438 1382.63 -113.822ZM1038.04 -170.76L891.751 -317.035L1137.6 -284.376L1038.04 -170.76ZM813.171 -110.64L674.354 -272.928L888.612 -317.064L813.171 -110.64ZM287.427 -316.56C284.287 -310.454 215.686 -176.75 208.428 -162.624L127.788 -243.696L287.427 -316.56ZM64.2265 -43.5359C62.3833 -52.7088 9.9529 -307.344 8.0665 -316.56L125.686 -243.552L64.2265 -43.5359ZM7.7353 66.9265L53.3401 590.122L7.7353 1105.66V66.9265ZM54.5209 593.333L121.452 770.64C120.012 775.147 9.7945 1111.19 8.2825 1115.79L54.5209 593.333ZM8.4409 1120.1L121.049 776.645L97.8649 1056.05C87.2233 1063.68 17.2249 1113.78 8.4409 1120.1ZM232.98 1121.08L101.206 1056.94L305.758 1039.32L232.98 1121.08ZM615.415 998.419L478.615 1121.11L310.135 1038.84L615.415 998.419ZM617.849 998.175L841.553 1038.49L481.222 1120.57L617.849 998.175ZM621.06 997.296L796.74 953.232L843.727 1037.47L621.06 997.296ZM1031.89 925.454L1129.08 996.72L994.539 1119.94C996.425 1110.13 1029.96 935.16 1031.83 925.454H1031.89ZM1446.3 298.579V582.144C1440.18 571.445 1316.54 355.387 1311.27 346.2L1446.3 298.579ZM1174.03 -316.949L1293.02 -152.717L1140.11 -284.88L1174.03 -316.949ZM671.359 -272.856L577.126 -187.896L293.561 -316.79L671.359 -272.856ZM63.3769 -40.728L7.7353 47.8608V-310.973C9.9529 -300.216 61.1305 -51.6 63.3769 -40.728ZM846.521 1038.48L1030.32 925.728L992.883 1120.91L846.521 1038.48ZM1444.26 -317.309L1328.92 -252.595L1177.72 -317.309H1444.26ZM1172.32 -317.309L1138.84 -285.672L900.622 -317.309H1172.32ZM882.665 -317.309L672.987 -274.109L301.467 -317.309H882.665ZM285.699 -317.309L126.593 -244.69L9.5497 -317.309H285.699ZM9.2185 1121.25L98.5849 1057.29L229.927 1121.25H9.2185ZM234.665 1121.25L307.63 1039.33L475.462 1121.25H234.665ZM841.87 1039.92L731.105 1121.25H485.081L841.87 1039.92ZM733.539 1121.25L845.153 1039.3L990.665 1121.25H733.539ZM995.273 1121.25L1130.2 997.757L1224.32 1121.25H995.273ZM1226.97 1121.25L1373.72 874.637L1446.05 1121.25H1226.97Z" fill="#333333"/>
</g>
</g>
</g>
<defs>
<linearGradient id="paint0_linear_44_945" x1="720" y1="0" x2="720" y2="750" gradientUnits="userSpaceOnUse">
<stop/>
<stop offset="0.705" stop-opacity="0.8"/>
<stop offset="1" stop-opacity="0.3"/>
</linearGradient>
</defs>
</svg>
